<svg width="80" height="81" viewBox="0 0 80 81" fill="none" xmlns="http://www.w3.org/2000/svg">
<g clip-path="url(#clip0_265_710)">
<g filter="url(#filter0_f_265_710)">
<ellipse cx="27" cy="68.2812" rx="26" ry="3" fill="url(#paint0_radial_265_710)" fill-opacity="0.7"/>
</g>
<g filter="url(#filter1_f_265_710)">
<g filter="url(#filter2_ii_265_710)">
<path d="M46.1798 12.0051L37.4328 18.3609C37.0049 18.6719 36.8569 19.2241 37.0356 19.7219C37.5188 21.0709 37.0717 22.6513 35.8563 23.5343C34.641 24.4174 33.0123 24.3716 31.8661 23.4782C31.4478 23.1544 30.8769 23.1247 30.449 23.4356L5.74869 41.3835C3.6775 42.8885 3.21892 45.7849 4.72392 47.8561L17.4977 65.4356C19.0027 67.5068 21.8991 67.9654 23.9703 66.4604L48.6705 48.5125C49.0985 48.2015 49.2465 47.6493 49.0678 47.1514C48.5846 45.8025 49.0317 44.2222 50.247 43.3391C51.4623 42.456 53.0911 42.5018 54.2372 43.3952C54.6555 43.7189 55.2265 43.7487 55.6544 43.4378L64.4013 37.082C66.4725 35.577 66.9311 32.6806 65.4261 30.6094L52.6524 13.03C51.1474 10.9587 48.251 10.5002 46.1798 12.0051ZM48.0828 40.3607C46.5936 41.4428 44.4952 41.1105 43.4131 39.6213C42.331 38.1321 42.6632 36.0337 44.1524 34.9516C45.6416 33.8695 47.7401 34.2017 48.8222 35.6909C49.9043 37.1801 49.572 39.2786 48.0828 40.3607ZM41.9634 31.9389C40.4742 33.021 38.3757 32.6888 37.2936 31.1996C36.2115 29.7104 36.5438 27.612 38.033 26.5299C39.5222 25.4478 41.6206 25.78 42.7027 27.2692C43.7848 28.7584 43.4526 30.8568 41.9634 31.9389Z" fill="url(#paint1_linear_265_710)"/>
</g>
<path d="M46.1798 12.0051L37.4328 18.3609C37.0049 18.6719 36.8569 19.2241 37.0356 19.7219C37.5188 21.0709 37.0717 22.6513 35.8563 23.5343C34.641 24.4174 33.0123 24.3716 31.8661 23.4782C31.4478 23.1544 30.8769 23.1247 30.449 23.4356L5.74869 41.3835C3.6775 42.8885 3.21892 45.7849 4.72392 47.8561L17.4977 65.4356C19.0027 67.5068 21.8991 67.9654 23.9703 66.4604L48.6705 48.5125C49.0985 48.2015 49.2465 47.6493 49.0678 47.1514C48.5846 45.8025 49.0317 44.2222 50.247 43.3391C51.4623 42.456 53.0911 42.5018 54.2372 43.3952C54.6555 43.7189 55.2265 43.7487 55.6544 43.4378L64.4013 37.082C66.4725 35.577 66.9311 32.6806 65.4261 30.6094L52.6524 13.03C51.1474 10.9587 48.251 10.5002 46.1798 12.0051ZM48.0828 40.3607C46.5936 41.4428 44.4952 41.1105 43.4131 39.6213C42.331 38.1321 42.6632 36.0337 44.1524 34.9516C45.6416 33.8695 47.7401 34.2017 48.8222 35.6909C49.9043 37.1801 49.572 39.2786 48.0828 40.3607ZM41.9634 31.9389C40.4742 33.021 38.3757 32.6888 37.2936 31.1996C36.2115 29.7104 36.5438 27.612 38.033 26.5299C39.5222 25.4478 41.6206 25.78 42.7027 27.2692C43.7848 28.7584 43.4526 30.8568 41.9634 31.9389Z" fill="url(#paint2_linear_265_710)"/>
<path d="M46.1798 12.0051L37.4328 18.3609C37.0049 18.6719 36.8569 19.2241 37.0356 19.7219C37.5188 21.0709 37.0717 22.6513 35.8563 23.5343C34.641 24.4174 33.0123 24.3716 31.8661 23.4782C31.4478 23.1544 30.8769 23.1247 30.449 23.4356L5.74869 41.3835C3.6775 42.8885 3.21892 45.7849 4.72392 47.8561L17.4977 65.4356C19.0027 67.5068 21.8991 67.9654 23.9703 66.4604L48.6705 48.5125C49.0985 48.2015 49.2465 47.6493 49.0678 47.1514C48.5846 45.8025 49.0317 44.2222 50.247 43.3391C51.4623 42.456 53.0911 42.5018 54.2372 43.3952C54.6555 43.7189 55.2265 43.7487 55.6544 43.4378L64.4013 37.082C66.4725 35.577 66.9311 32.6806 65.4261 30.6094L52.6524 13.03C51.1474 10.9587 48.251 10.5002 46.1798 12.0051ZM48.0828 40.3607C46.5936 41.4428 44.4952 41.1105 43.4131 39.6213C42.331 38.1321 42.6632 36.0337 44.1524 34.9516C45.6416 33.8695 47.7401 34.2017 48.8222 35.6909C49.9043 37.1801 49.572 39.2786 48.0828 40.3607ZM41.9634 31.9389C40.4742 33.021 38.3757 32.6888 37.2936 31.1996C36.2115 29.7104 36.5438 27.612 38.033 26.5299C39.5222 25.4478 41.6206 25.78 42.7027 27.2692C43.7848 28.7584 43.4526 30.8568 41.9634 31.9389Z" fill="url(#paint3_linear_265_710)"/>
<path d="M37.107 43.288L20.9483 55.0294C20.4177 55.415 19.6788 55.298 19.2932 54.7673C18.9076 54.2367 19.0246 53.4978 19.5552 53.1123L35.6968 41.3833C36.2275 40.9977 36.9663 41.1147 37.3519 41.6454C37.7546 42.1636 37.6205 42.9149 37.107 43.288Z" fill="#FAFAFA"/>
<path d="M39.856 47.0708L23.6973 58.8122C23.1667 59.1978 22.4278 59.0808 22.0422 58.5502C21.6567 58.0195 21.7736 57.2806 22.3043 56.8951L38.4459 45.1661C38.9765 44.7806 39.7154 44.8975 40.1009 45.4282C40.4912 45.9293 40.3695 46.6977 39.856 47.0708Z" fill="#FAFAFA"/>
<path d="M22.6035 41.6125L15.6368 46.6747C14.8323 47.2593 13.7092 47.0814 13.1246 46.2769C12.54 45.4724 12.7178 44.3493 13.5224 43.7647L20.4891 38.7025C21.2936 38.1179 22.4167 38.2958 23.0013 39.1003C23.5983 39.9219 23.408 41.0279 22.6035 41.6125Z" fill="#DEFF1C"/>
<path d="M55.4849 26.1418L51.6849 28.9031C51.0687 29.3508 50.933 30.2079 51.3807 30.8241L54.1419 34.6242C54.5897 35.2404 55.4468 35.3761 56.063 34.9283L59.8631 32.1671C60.4793 31.7194 60.615 30.8623 60.1672 30.246L57.406 26.446C56.9583 25.8298 56.1012 25.6941 55.4849 26.1418Z" fill="#DEFF1C"/>
</g>
<g filter="url(#filter3_ii_265_710)">
<path d="M65.4351 22.0398L54.2011 25.0499C53.6514 25.1972 53.2899 25.6946 53.2774 26.2635C53.2426 27.8044 52.1843 29.219 50.6234 29.6372C49.0625 30.0555 47.4446 29.3815 46.6381 28.0425C46.3429 27.5561 45.781 27.306 45.2314 27.4533L13.5079 35.9536C10.8478 36.6664 9.27065 39.3981 9.98343 42.0583L16.0332 64.6362C16.746 67.2963 19.4777 68.8735 22.1378 68.1608L53.8613 59.6605C54.4109 59.5132 54.7724 59.0158 54.785 58.4469C54.8198 56.906 55.8781 55.4914 57.439 55.0732C58.9998 54.6549 60.6178 55.3289 61.4242 56.6679C61.7195 57.1543 62.2813 57.4043 62.8309 57.2571L74.065 54.2469C76.7251 53.5341 78.3023 50.8024 77.5895 48.1423L71.5397 25.5643C70.827 22.9042 68.0952 21.327 65.4351 22.0398ZM56.414 51.2479C54.5013 51.7604 52.5222 50.6177 52.0097 48.7051C51.4972 46.7924 52.6399 44.8133 54.5525 44.3008C56.4652 43.7883 58.4443 44.931 58.9568 46.8436C59.4693 48.7563 58.3266 50.7354 56.414 51.2479ZM53.5157 40.4316C51.6031 40.9441 49.624 39.8014 49.1115 37.8888C48.599 35.9761 49.7416 33.997 51.6543 33.4845C53.5669 32.972 55.5461 34.1147 56.0586 36.0273C56.571 37.9399 55.4284 39.9191 53.5157 40.4316Z" fill="url(#paint4_linear_265_710)"/>
</g>
<path d="M65.4351 22.0397L54.2011 25.0498C53.6514 25.1971 53.2899 25.6945 53.2774 26.2634C53.2426 27.8043 52.1843 29.2189 50.6234 29.6372C49.0625 30.0554 47.4446 29.3814 46.6381 28.0424C46.3429 27.556 45.781 27.306 45.2314 27.4532L13.5079 35.9535C10.8478 36.6663 9.27065 39.3981 9.98343 42.0582L16.0332 64.6362C16.746 67.2963 19.4777 68.8735 22.1378 68.1607L53.8613 59.6604C54.4109 59.5131 54.7724 59.0157 54.785 58.4468C54.8198 56.9059 55.8781 55.4913 57.439 55.0731C58.9998 54.6549 60.6178 55.3288 61.4242 56.6678C61.7195 57.1542 62.2813 57.4043 62.8309 57.257L74.065 54.2469C76.7251 53.5341 78.3023 50.8023 77.5895 48.1422L71.5397 25.5642C70.827 22.9041 68.0952 21.3269 65.4351 22.0397ZM56.414 51.2478C54.5013 51.7603 52.5222 50.6177 52.0097 48.705C51.4972 46.7924 52.6399 44.8132 54.5525 44.3008C56.4652 43.7883 58.4443 44.9309 58.9568 46.8436C59.4693 48.7562 58.3266 50.7353 56.414 51.2478ZM53.5157 40.4315C51.6031 40.944 49.624 39.8013 49.1115 37.8887C48.599 35.9761 49.7416 33.9969 51.6543 33.4844C53.5669 32.9719 55.5461 34.1146 56.0586 36.0272C56.571 37.9399 55.4284 39.919 53.5157 40.4315Z" fill="url(#paint5_linear_265_710)"/>
<path d="M65.4351 22.0397L54.2011 25.0498C53.6514 25.1971 53.2899 25.6945 53.2774 26.2634C53.2426 27.8043 52.1843 29.2189 50.6234 29.6372C49.0625 30.0554 47.4446 29.3814 46.6381 28.0424C46.3429 27.556 45.781 27.306 45.2314 27.4532L13.5079 35.9535C10.8478 36.6663 9.27065 39.3981 9.98343 42.0582L16.0332 64.6362C16.746 67.2963 19.4777 68.8735 22.1378 68.1607L53.8613 59.6604C54.4109 59.5131 54.7724 59.0157 54.785 58.4468C54.8198 56.9059 55.8781 55.4913 57.439 55.0731C58.9998 54.6549 60.6178 55.3288 61.4242 56.6678C61.7195 57.1542 62.2813 57.4043 62.8309 57.257L74.065 54.2469C76.7251 53.5341 78.3023 50.8023 77.5895 48.1422L71.5397 25.5642C70.827 22.9041 68.0952 21.3269 65.4351 22.0397ZM56.414 51.2478C54.5013 51.7603 52.5222 50.6177 52.0097 48.705C51.4972 46.7924 52.6399 44.8132 54.5525 44.3008C56.4652 43.7883 58.4443 44.9309 58.9568 46.8436C59.4693 48.7562 58.3266 50.7353 56.414 51.2478ZM53.5157 40.4315C51.6031 40.944 49.624 39.8013 49.1115 37.8887C48.599 35.9761 49.7416 33.9969 51.6543 33.4844C53.5669 32.9719 55.5461 34.1146 56.0586 36.0272C56.571 37.9399 55.4284 39.919 53.5157 40.4315Z" fill="url(#paint6_linear_265_710)"/>
<path d="M44.2642 49.9557L23.511 55.5165C22.8295 55.6991 22.1326 55.2967 21.95 54.6152C21.7674 53.9337 22.1697 53.2368 22.8512 53.0542L43.5825 47.4993C44.264 47.3167 44.9609 47.719 45.1435 48.4005C45.3481 49.0762 44.9238 49.7789 44.2642 49.9557Z" fill="#FAFAFA"/>
<path d="M45.566 54.8141L24.8128 60.3749C24.1312 60.5575 23.4344 60.1552 23.2518 59.4736C23.0691 58.7921 23.4715 58.0953 24.153 57.9126L44.8842 52.3577C45.5658 52.1751 46.2626 52.5775 46.4452 53.259C46.644 53.9126 46.2255 54.6374 45.566 54.8141Z" fill="#FAFAFA"/>
<path d="M30.345 42.6814L21.3974 45.0789C20.3642 45.3558 19.3049 44.7442 19.0281 43.7109C18.7512 42.6777 19.3628 41.6184 20.396 41.3415L29.3436 38.944C30.3769 38.6672 31.4361 39.2787 31.713 40.312C31.9958 41.3673 31.3783 42.4045 30.345 42.6814Z" fill="#DEFF1C"/>
<path d="M69.329 39.8229L64.4485 41.1306C63.6571 41.3427 63.1904 42.151 63.4024 42.9425L64.7102 47.823C64.9222 48.6144 65.7306 49.0812 66.522 48.8691L71.4026 47.5614C72.194 47.3493 72.6607 46.5409 72.4487 45.7495L71.1409 40.8689C70.9289 40.0775 70.1205 39.6108 69.329 39.8229Z" fill="#DEFF1C"/>
</g>
<defs>
<filter id="filter0_f_265_710" x="-7.3668" y="56.9145" width="68.7336" height="22.7336" filterUnits="userSpaceOnUse" color-interpolation-filters="sRGB">
<feFlood flood-opacity="0" result="BackgroundImageFix"/>
<feBlend mode="normal" in="SourceGraphic" in2="BackgroundImageFix" result="shape"/>
<feGaussianBlur stdDeviation="4.1834" result="effect1_foregroundBlur_265_710"/>
</filter>
<filter id="filter1_f_265_710" x="2.83789" y="10.1192" width="64.4746" height="58.2272" filterUnits="userSpaceOnUse" color-interpolation-filters="sRGB">
<feFlood flood-opacity="0" result="BackgroundImageFix"/>
<feBlend mode="normal" in="SourceGraphic" in2="BackgroundImageFix" result="shape"/>
<feGaussianBlur stdDeviation="0.5" result="effect1_foregroundBlur_265_710"/>
</filter>
<filter id="filter2_ii_265_710" x="3.83789" y="10.8192" width="62.4746" height="56.8272" filterUnits="userSpaceOnUse" color-interpolation-filters="sRGB">
<feFlood flood-opacity="0" result="BackgroundImageFix"/>
<feBlend mode="normal" in="SourceGraphic" in2="BackgroundImageFix" result="shape"/>
<feColorMatrix in="SourceAlpha" type="matrix" values="0 0 0 0 0 0 0 0 0 0 0 0 0 0 0 0 0 0 127 0" result="hardAlpha"/>
<feOffset dy="0.3"/>
<feGaussianBlur stdDeviation="0.5"/>
<feComposite in2="hardAlpha" operator="arithmetic" k2="-1" k3="1"/>
<feColorMatrix type="matrix" values="0 0 0 0 0.23768 0 0 0 0 0.34638 0 0 0 0 0.543269 0 0 0 1 0"/>
<feBlend mode="normal" in2="shape" result="effect1_innerShadow_265_710"/>
<feColorMatrix in="SourceAlpha" type="matrix" values="0 0 0 0 0 0 0 0 0 0 0 0 0 0 0 0 0 0 127 0" result="hardAlpha"/>
<feOffset dy="-0.3"/>
<feGaussianBlur stdDeviation="0.5"/>
<feComposite in2="hardAlpha" operator="arithmetic" k2="-1" k3="1"/>
<feColorMatrix type="matrix" values="0 0 0 0 0.0653661 0 0 0 0 0.258715 0 0 0 0 0.485577 0 0 0 1 0"/>
<feBlend mode="normal" in2="effect1_innerShadow_265_710" result="effect2_innerShadow_265_710"/>
</filter>
<filter id="filter3_ii_265_710" x="9.8125" y="21.5685" width="67.9482" height="47.0635" filterUnits="userSpaceOnUse" color-interpolation-filters="sRGB">
<feFlood flood-opacity="0" result="BackgroundImageFix"/>
<feBlend mode="normal" in="SourceGraphic" in2="BackgroundImageFix" result="shape"/>
<feColorMatrix in="SourceAlpha" type="matrix" values="0 0 0 0 0 0 0 0 0 0 0 0 0 0 0 0 0 0 127 0" result="hardAlpha"/>
<feOffset dy="0.3"/>
<feGaussianBlur stdDeviation="0.5"/>
<feComposite in2="hardAlpha" operator="arithmetic" k2="-1" k3="1"/>
<feColorMatrix type="matrix" values="0 0 0 0 0.2261 0 0 0 0 0.395461 0 0 0 0 0.701923 0 0 0 1 0"/>
<feBlend mode="normal" in2="shape" result="effect1_innerShadow_265_710"/>
<feColorMatrix in="SourceAlpha" type="matrix" values="0 0 0 0 0 0 0 0 0 0 0 0 0 0 0 0 0 0 127 0" result="hardAlpha"/>
<feOffset dy="-0.3"/>
<feGaussianBlur stdDeviation="0.5"/>
<feComposite in2="hardAlpha" operator="arithmetic" k2="-1" k3="1"/>
<feColorMatrix type="matrix" values="0 0 0 0 0.0519369 0 0 0 0 0.216445 0 0 0 0 0.514423 0 0 0 1 0"/>
<feBlend mode="normal" in2="effect1_innerShadow_265_710" result="effect2_innerShadow_265_710"/>
</filter>
<radialGradient id="paint0_radial_265_710" cx="0" cy="0" r="1" gradientUnits="userSpaceOnUse" gradientTransform="translate(20.3835 65.2812) rotate(6.31993) scale(27.2528 400.285)">
<stop/>
<stop offset="1" stop-opacity="0"/>
</radialGradient>
<linearGradient id="paint1_linear_265_710" x1="60.9324" y1="28.6578" x2="20.172" y2="58.2757" gradientUnits="userSpaceOnUse">
<stop stop-color="#2B93CA"/>
<stop offset="1" stop-color="#2E43A9"/>
</linearGradient>
<linearGradient id="paint2_linear_265_710" x1="60.164" y1="22.4307" x2="55.4852" y2="25.8305" gradientUnits="userSpaceOnUse">
<stop stop-color="#A6D9FF"/>
<stop offset="1" stop-color="#23A2FF" stop-opacity="0"/>
</linearGradient>
<linearGradient id="paint3_linear_265_710" x1="60.164" y1="22.4307" x2="55.4852" y2="25.8305" gradientUnits="userSpaceOnUse">
<stop stop-color="#A6D9FF"/>
<stop offset="1" stop-color="#23A2FF" stop-opacity="0"/>
</linearGradient>
<linearGradient id="paint4_linear_265_710" x1="73.8294" y1="44.45" x2="21.4791" y2="58.4774" gradientUnits="userSpaceOnUse">
<stop stop-color="#28B5FF"/>
<stop offset="1" stop-color="#3E5AE2"/>
</linearGradient>
<linearGradient id="paint5_linear_265_710" x1="75.4586" y1="37.9005" x2="69.4493" y2="39.5106" gradientUnits="userSpaceOnUse">
<stop stop-color="#A6D9FF"/>
<stop offset="1" stop-color="#23A2FF" stop-opacity="0"/>
</linearGradient>
<linearGradient id="paint6_linear_265_710" x1="75.4586" y1="37.9005" x2="69.4493" y2="39.5106" gradientUnits="userSpaceOnUse">
<stop stop-color="#A6D9FF"/>
<stop offset="1" stop-color="#23A2FF" stop-opacity="0"/>
</linearGradient>
<clipPath id="clip0_265_710">
<rect width="80" height="80" fill="white" transform="translate(0 0.28125)"/>
</clipPath>
</defs>
</svg>
