<svg width="201" height="188" viewBox="0 0 201 188" fill="none" xmlns="http://www.w3.org/2000/svg">
<g clip-path="url(#clip0_265_761)">
<path d="M192.707 16.9514C163.272 5.66678 132.006 -0.08024 100.482 -2.62711e-05C68.9592 -0.08024 37.6926 5.66678 8.25828 16.9514L0.482422 19.9429L1.78386 28.1728L6.49806 57.9327L16.6708 56.3223L11.9566 26.5624C40.2158 15.7499 70.2254 10.2367 100.482 10.2991C130.739 10.2367 160.749 15.7499 189.008 26.5624L184.294 56.3223L194.467 57.9327L199.181 28.1728L200.482 19.9429L192.707 16.9514ZM173.227 126.333C125.814 111.92 75.188 111.92 27.7752 126.333L23.7164 100.712L13.5436 102.322L17.6024 127.943L19.475 139.647L30.8134 136.164C76.2588 122.357 124.781 122.357 170.226 136.164L181.565 139.647L183.437 127.943L187.496 102.322L177.323 100.712L173.227 126.333Z" fill="white"/>
<path d="M171.191 139.062L168.603 155.423L139.053 176.878H61.9129L32.3637 155.423L29.7749 139.071C26.4417 140.129 23.146 141.264 19.8877 142.475L22.191 157.034L22.8604 161.247L26.3106 163.756L55.8598 185.221L58.5657 187.187H142.401L145.107 185.221L174.656 163.756L178.106 161.247L178.775 157.034L181.079 142.475C177.82 141.257 174.525 140.12 171.191 139.062Z" fill="#DEFF1C"/>
<path d="M22.4824 58.2463L2.1377 61.4686L3.8953 72.5657L24.24 69.3435L22.4824 58.2463Z" fill="white"/>
<path d="M24.6806 72.117L4.33594 75.3393L6.09355 86.4364L26.4382 83.2141L24.6806 72.117Z" fill="white"/>
<path d="M26.875 85.9849L6.53027 89.2072L8.28788 100.304L28.6326 97.082L26.875 85.9849Z" fill="white"/>
<path d="M178.481 58.2397L176.724 69.3368L197.068 72.5591L198.826 61.462L178.481 58.2397Z" fill="white"/>
<path d="M176.286 72.1146L174.528 83.2117L194.873 86.434L196.631 75.3368L176.286 72.1146Z" fill="white"/>
<path d="M174.087 85.9846L172.329 97.0817L192.674 100.304L194.431 89.2068L174.087 85.9846Z" fill="white"/>
<path d="M67.3989 89.6819L65.9664 89.1342L64.562 88.6146C60.8169 87.2101 58.9443 86.5454 55.1991 85.258C55.6766 89.6273 56.1557 93.9967 56.6363 98.366C52.8912 99.0542 51.042 99.4333 47.3671 100.239C46.2717 91.7745 45.17 83.298 44.062 74.809C48.2191 76.1292 50.293 76.822 54.4361 78.2546C55.3489 78.5635 55.8077 78.7227 56.7253 79.0504C56.2337 74.369 55.9903 72.0283 55.5034 67.3468L53.1627 66.5323C48.9167 65.0763 46.7913 64.3741 42.5359 63.0118L40.5837 48.0032C44.6893 47.3244 46.7679 47.006 50.9671 46.4442C51.2199 48.785 51.3463 49.9272 51.6038 52.2445C55.9731 53.7239 60.3315 55.2625 64.679 56.8604C64.0548 49.3264 63.4307 41.7878 62.8065 34.2444C50.6909 35.4616 38.7018 37.1329 26.7267 39.3238C27.7379 45.9059 28.7459 52.488 29.7509 59.0701C28.4588 58.7096 27.8128 58.5411 26.5254 58.1946C27.2791 62.9557 27.6583 65.3432 28.398 70.1089L31.572 71.0452L34.849 71.9814C33.6318 72.253 33.0279 72.3887 31.8201 72.6743C33.9205 86.4065 36.0209 100.139 38.1213 113.871C48.2202 111.072 58.4725 108.858 68.8268 107.242C68.3586 101.4 67.8827 95.5462 67.3989 89.6819Z" fill="#DEFF1C"/>
<path d="M133.496 33.87C133.187 38.1348 133.028 40.2695 132.719 44.5437C127.935 44.1317 125.519 43.9679 120.646 43.7104C120.408 48.86 120.171 54.0095 119.934 59.1591C117.982 59.9643 117.003 60.3716 115.061 61.2002C111.807 62.6046 110.187 63.2975 106.962 64.7628C103.189 66.4715 101.302 67.361 97.5989 69.1774L96.1523 69.889C96.7375 70.1605 97.0278 70.2962 97.6129 70.5771C101.325 72.3233 103.184 73.2268 106.803 75.09C110.889 77.1826 114.944 79.4063 118.895 81.7377C118.53 89.7242 118.163 97.7122 117.795 105.702C113.244 105.351 110.95 105.234 106.33 105.117C106.423 99.1682 106.517 93.2165 106.611 87.2617C100.749 84.1392 94.762 81.2601 88.7089 78.5402C87.3559 77.9316 86.6771 77.6367 85.3195 77.0422L83.8823 76.4149C78.1772 79.6544 72.6063 83.1187 67.1696 86.8076C67.2164 87.3741 67.2398 87.6456 67.2866 88.2121C62.4133 86.3676 59.9649 85.4922 55.0588 83.8209C54.9979 83.2591 54.9651 82.9735 54.9043 82.4165C58.5651 79.6872 62.3337 77.0609 66.1397 74.5704C68.1808 73.2268 69.2154 72.5667 71.2893 71.2934C69.0469 70.4179 67.9233 69.9919 65.6715 69.1493C61.4427 67.5607 57.1888 66.0424 52.91 64.5943C52.3716 59.6694 52.1048 57.207 51.5664 52.2727C55.9357 53.7521 60.2941 55.2907 64.6416 56.8886C70.9241 59.2044 77.152 61.659 83.3252 64.2525L84.7296 63.4848C92.0795 59.6226 99.5136 56.0319 107.083 52.6192C107.14 48.874 107.172 47.0014 107.229 43.2563C102.318 43.1674 99.8132 43.158 94.893 43.2563C94.8415 39.0102 94.8134 36.8802 94.7619 32.6341C107.753 32.5171 120.603 32.9337 133.496 33.87Z" fill="white"/>
<path d="M119.86 60.573C119.548 67.1676 119.245 73.7606 118.951 80.352C114.982 78.0113 110.918 75.797 106.812 73.7091L106.93 66.1767C111.325 64.1777 113.535 63.218 117.973 61.3595L119.86 60.573Z" fill="#DEFF1C"/>
<path d="M141.487 34.5911C140.913 41.0484 140.335 47.5025 139.755 53.9535L138.683 53.3028L137.278 52.4555L136.689 52.0997C136.305 56.753 136.113 59.0844 135.724 63.7377C136.932 64.5148 137.531 64.9081 138.72 65.6992C139.909 66.4904 140.56 66.893 141.768 67.6982C140.49 67.525 139.849 67.4454 138.561 67.2862C137.36 80.7563 136.153 94.2263 134.942 107.696C145.25 109.447 155.447 111.791 165.484 114.718L168.574 95.2109C165.297 92.1212 161.87 89.1251 158.387 86.2554L156.374 100.913C152.722 100.042 150.878 99.6443 147.156 98.914L150.091 73.5687C153.837 76.3307 157.521 79.2332 161.079 82.234C161.739 77.5058 162.071 75.1417 162.736 70.4087C159.08 67.4407 155.297 64.571 151.449 61.8464C152.03 56.8529 152.607 51.8718 153.181 46.9033C157.352 47.5072 159.417 47.8396 163.48 48.5558C162.82 53.3917 162.493 55.8074 161.833 60.6433C166.612 61.5468 168.972 62.0477 173.616 63.1151C174.839 55.397 176.063 47.6773 177.286 39.956C165.428 37.6668 153.523 35.9066 141.487 34.5911Z" fill="#DEFF1C"/>
<path d="M47.2963 27.9198L45.4845 28.2849L43.9163 28.6126L42.4276 28.9356L40.8687 29.282L39.0757 29.694L38.8088 28.0087C38.7292 27.5031 38.6497 26.9975 38.542 26.3234L40.3537 25.8552L41.936 25.4667C42.4416 25.3403 42.9332 25.2232 43.4388 25.1062L45.0258 24.7364L46.8609 24.3431L47.0809 26.1408C47.1465 26.6839 47.212 27.1988 47.2963 27.9198Z" fill="white"/>
<path d="M77.8838 17.4942L75.7818 17.6955L73.9093 17.8968L72.1818 18.0887L70.5059 18.2947L68.7878 18.5147C68.1979 18.5896 67.5847 18.6739 66.9152 18.7675C66.2458 18.8612 65.581 18.9548 64.8413 19.0672C64.8835 19.6991 64.9256 20.2703 64.9584 20.7993C64.9912 21.3283 65.0286 21.8245 65.0614 22.3067L65.155 23.7392C65.1878 24.2074 65.2205 24.713 65.258 25.2466C65.2954 25.7803 65.3282 26.3468 65.3703 26.9788L67.4115 26.7447L69.2278 26.5434L70.9225 26.3702L72.5704 26.211L74.2651 26.0565L76.1002 25.902C76.7462 25.8459 77.4297 25.7944 78.1694 25.7382C78.1694 26.2906 78.2068 26.7447 78.2209 27.1754L78.2677 28.4253C78.2677 28.856 78.3051 29.3101 78.3239 29.8625L76.1704 30.0077L74.2182 30.1528L72.4065 30.3026L70.7025 30.429L69.0125 30.5835L67.2991 30.752L65.5061 30.9346L63.582 31.1406L61.4707 31.384C61.4099 30.6069 61.3537 29.8766 61.2975 29.1884C61.2413 28.5002 61.1945 27.8401 61.1477 27.2082L61.0026 25.373C60.9558 24.7785 60.9089 24.198 60.8668 23.6128C60.8247 23.0276 60.7732 22.4471 60.7264 21.8526C60.6796 21.2581 60.6327 20.6495 60.5859 20.0175C60.5545 19.7729 60.5923 19.5244 60.6949 19.3002C60.7975 19.076 60.9608 18.885 61.1664 18.7488L62.3508 17.8687C63.0811 17.7283 63.7553 17.5972 64.4247 17.4801L66.2973 17.1431L68.0528 16.8435L69.7334 16.5766L71.3907 16.3285L73.076 16.0898C73.6518 16.0102 74.237 15.9306 74.8502 15.8557L76.7884 15.6357L78.895 15.3969C78.6562 15.7527 78.4783 16.0242 78.3005 16.2957C78.1418 16.4488 78.0215 16.637 77.9491 16.8452C77.8767 17.0534 77.8543 17.2757 77.8838 17.4942Z" fill="white"/>
<path d="M82.037 15.0879C82.7813 15.0177 83.4836 14.9569 84.1577 14.9054L86.0864 14.7556L87.8794 14.6385L89.5928 14.5402L91.2781 14.4559C91.8446 14.4279 92.411 14.4044 92.9962 14.3857L94.7986 14.3249C95.4212 14.3249 96.0672 14.2921 96.746 14.2827C97.4249 14.2734 98.1505 14.2593 98.8901 14.2546C98.8901 14.6292 98.8527 14.9896 98.8386 15.3314C98.8246 15.6731 98.8106 16.0851 98.8386 16.7732C98.8667 17.4614 98.8386 18.1215 98.8386 18.7722C98.8386 19.4229 98.8386 20.0549 98.8386 20.6869V22.6063C98.8386 23.2523 98.8386 23.9171 98.8386 24.6053C98.8386 25.2934 98.8386 26.0097 98.8386 26.7587C98.8386 27.5078 98.8386 28.3036 98.8386 29.1509H96.849L95.0233 29.179C94.4428 29.179 93.881 29.179 93.3286 29.2071L91.7229 29.2446L90.1593 29.2867L88.5957 29.3382L86.9993 29.3944L85.3187 29.4646L83.5163 29.5489L81.5548 29.6519C81.5314 28.8232 81.5033 28.0461 81.4799 27.3111C81.4565 26.5762 81.4378 25.8693 81.4144 25.1951C81.391 24.521 81.3722 23.8703 81.3535 23.2336L81.2926 21.361C81.2926 20.7384 81.2552 20.1158 81.2318 19.4885C81.2084 18.8612 81.1943 18.2011 81.1709 17.527C81.1305 17.0412 81.2296 16.5539 81.4565 16.1225L82.037 15.0879ZM94.4568 24.9751V23.1025C94.4568 22.5361 94.4568 22.0118 94.4568 21.4968C94.4568 20.9819 94.4568 20.4809 94.4568 19.9707C94.4568 19.4604 94.4568 18.9267 94.4568 18.3603C94.4568 17.7938 94.4568 17.1852 94.4568 16.4877L92.5187 16.5439L90.8381 16.6047L89.2417 16.6749L87.5611 16.7545L85.6323 16.8669L85.6791 18.702C85.6791 19.2638 85.7026 19.7834 85.7166 20.2937C85.7306 20.804 85.7166 21.3002 85.7494 21.8058C85.7821 22.3114 85.7728 22.8404 85.7868 23.4022L85.8336 25.2373C86.5265 25.1998 87.1491 25.1717 87.7343 25.1483L89.3868 25.0828L90.9598 25.0313L92.6217 24.9798L94.4568 24.9751Z" fill="white"/>
<path d="M102.068 14.2546C102.822 14.2546 103.534 14.2546 104.212 14.2827C104.891 14.3108 105.537 14.3108 106.155 14.3249L107.962 14.3857C108.543 14.3857 109.114 14.4279 109.68 14.4559L111.366 14.5402L113.079 14.6385L114.872 14.7556L116.801 14.9054C117.472 14.9553 118.179 15.0162 118.922 15.0879C119.123 15.4484 119.31 15.7808 119.483 16.0991C119.715 16.4897 119.82 16.943 119.783 17.3959C119.783 18.0419 119.745 18.6645 119.727 19.2684C119.708 19.8724 119.685 20.5137 119.666 21.141C119.647 21.7683 119.624 22.4565 119.6 23.1728C119.577 23.889 119.553 24.6474 119.53 25.476L117.452 25.3543L115.579 25.256L113.856 25.1717L112.176 25.1062L110.495 25.0781L108.622 25.0219L106.525 24.9751V26.4451C106.525 26.8851 106.525 27.2924 106.525 27.7278V29.1978H105.013H103.688H102.176C102.176 28.3504 102.176 27.5593 102.176 26.8055V24.6521C102.176 23.9639 102.176 23.2992 102.176 22.6531C102.176 22.0071 102.176 21.3704 102.176 20.7337V18.7722C102.176 18.1215 102.176 17.4614 102.176 16.7732C102.176 16.0851 102.176 15.6731 102.176 15.3314C102.176 14.9896 102.092 14.6292 102.068 14.2546ZM115.303 21.0895L115.34 19.6336L115.368 18.3603C115.368 17.9249 115.392 17.4614 115.401 16.9043L113.472 16.792L111.796 16.7124L110.2 16.6422L108.519 16.5813L106.577 16.5251V17.9951V19.2778C106.577 19.7179 106.577 20.186 106.577 20.7525L108.505 20.7993L110.177 20.8555L111.759 20.9163L113.426 20.9912L115.303 21.0895Z" fill="white"/>
<path d="M122.059 15.3969L124.17 15.6357L126.08 15.8744C126.689 15.9493 127.278 16.0289 127.85 16.1085L129.54 16.3472L131.192 16.5954L132.873 16.8622C133.444 16.9558 134.029 17.0541 134.633 17.1618C135.237 17.2695 135.864 17.3772 136.505 17.4989C137.147 17.6206 137.854 17.747 138.584 17.8874C139.001 18.1964 139.394 18.4867 139.764 18.7675C139.97 18.9031 140.134 19.0939 140.238 19.3181C140.341 19.5424 140.38 19.7912 140.349 20.0362C140.297 20.6682 140.251 21.2768 140.204 21.8713C140.157 22.4659 140.115 23.0464 140.068 23.6315C140.021 24.2167 139.979 24.7972 139.932 25.3918C139.885 25.9863 139.839 26.5949 139.787 27.2269C139.736 27.8589 139.689 28.5143 139.633 29.2071L139.464 31.4027L138.008 31.2342L136.74 31.0937L135.307 30.9393C135.349 30.2698 135.387 29.7174 135.424 29.1978L135.522 27.681L135.639 25.9395L133.767 25.7195L132.142 25.5322L130.626 25.3684L129.001 25.1998L127.129 25.0219C127.096 25.7054 127.068 26.2766 127.044 26.8102C127.021 27.3439 126.993 27.8401 126.969 28.3738L126.88 30.1668L125.401 30.0545L124.114 29.9608L122.63 29.8625C122.658 29.0386 122.691 28.2662 122.719 27.5218C122.747 26.7775 122.77 26.0893 122.798 25.4199C122.826 24.7504 122.845 24.1044 122.868 23.4771C122.892 22.8497 122.92 22.2271 122.943 21.6045C122.967 20.9819 122.99 20.3686 123.014 19.7319C123.037 19.0952 123.06 18.4586 123.084 17.7891C123.135 17.2969 123.018 16.8019 122.751 16.3847C122.522 16.0898 122.297 15.7527 122.059 15.3969ZM135.897 22.0024L135.991 20.5418C136.023 20.1064 136.051 19.6664 136.089 19.0859C135.401 18.9829 134.778 18.8893 134.216 18.8097L132.573 18.585L131.009 18.379L129.357 18.1777C128.776 18.1075 128.149 18.0326 127.456 17.9577C127.428 18.5569 127.405 19.011 127.386 19.4604C127.367 19.9098 127.344 20.3639 127.311 20.9631L129.207 21.1644L130.846 21.3517L132.4 21.5436C132.924 21.6045 133.458 21.6747 134.034 21.7496L135.897 22.0024Z" fill="white"/>
<path d="M161.883 29.694L160.09 29.282L158.531 28.9356L157.042 28.6126L155.474 28.2849L153.662 27.9197C153.751 27.1988 153.817 26.6604 153.882 26.1221L154.102 24.3244L155.933 24.741L157.52 25.1109C158.025 25.2279 158.517 25.345 159.022 25.4714L160.605 25.8599L162.416 26.3281C162.309 27.0022 162.229 27.5078 162.15 28.0134C162.07 28.519 161.99 29.0246 161.883 29.694Z" fill="white"/>
<path d="M98.5361 133.006C99.8052 132.716 101.123 132.717 102.392 133.009H102.443C103.091 132.861 103.755 132.794 104.419 132.807C105.085 132.819 105.747 132.906 106.394 133.066C107.017 132.938 107.654 132.885 108.29 132.91C108.935 132.934 109.575 133.027 110.2 133.182H110.243C110.883 133.061 111.535 133.015 112.186 133.047C112.861 133.086 113.531 133.194 114.185 133.37H114.241L114.242 133.378C114.843 133.282 115.453 133.255 116.061 133.3C116.739 133.345 117.41 133.46 118.064 133.645H118.116L118.119 133.657C118.718 133.574 119.325 133.558 119.928 133.613C120.577 133.671 121.219 133.789 121.847 133.964H121.899C122.521 133.889 123.15 133.889 123.771 133.964C124.429 134.032 125.078 134.16 125.713 134.343H125.752C126.374 134.27 127.002 134.27 127.624 134.343C128.287 134.424 128.942 134.561 129.583 134.751H129.618C130.233 134.701 130.852 134.719 131.463 134.806C132.15 134.91 132.827 135.068 133.49 135.275H133.522V135.287C134.114 135.26 134.708 135.293 135.293 135.387C135.963 135.495 136.626 135.647 137.276 135.842H137.287C137.891 135.832 138.495 135.88 139.09 135.986C139.777 136.101 140.457 136.258 141.126 136.455H141.154L141.155 136.456C141.733 136.468 142.31 136.53 142.877 136.641C143.566 136.774 144.247 136.943 144.918 137.147L144.951 137.168C145.53 137.2 146.106 137.278 146.673 137.4C147.295 137.527 147.965 137.7 148.719 137.925H148.752L148.773 137.942C149.33 137.999 149.882 138.089 150.428 138.215C150.993 138.343 151.625 138.504 152.347 138.718L152.432 138.729C153.007 138.805 153.578 138.915 154.141 139.057C154.718 139.196 155.365 139.371 156.165 139.605L156.242 139.619C156.687 139.694 157.235 139.816 157.923 139.989C158.611 140.162 159.327 140.378 159.982 140.56L160.071 140.596C160.462 140.687 160.941 140.808 161.569 140.981L162.781 141.323L163.639 141.566L164.874 141.927C164.98 141.952 165.089 141.968 165.197 141.978C165.442 141.969 165.681 142.057 165.862 142.222C165.896 142.269 165.92 142.322 165.932 142.379C165.938 142.408 165.939 142.438 165.939 142.468L165.975 142.484L165.947 142.658L165.951 142.685L165.943 142.681L165.549 145.227L165.541 145.223L165.166 147.613L165.17 147.615L164.766 150.145L164.772 150.147L164.342 152.872H164.238C163.626 152.716 162.998 152.636 162.366 152.634C161.708 152.634 161.053 152.714 160.414 152.872H160.283L160.293 152.8C159.707 152.646 159.105 152.568 158.499 152.568C157.865 152.566 157.233 152.645 156.62 152.805L156.611 152.877L156.504 152.843C156.502 152.843 156.501 152.842 156.499 152.842L156.42 152.872L156.426 152.822C155.842 152.658 155.239 152.573 154.632 152.572H154.599C153.973 152.572 153.35 152.659 152.748 152.83L152.745 152.858L152.701 152.843C152.695 152.844 152.689 152.847 152.684 152.848L152.558 152.872L152.566 152.8C151.982 152.625 151.375 152.536 150.765 152.535C150.131 152.533 149.5 152.623 148.893 152.802L148.884 152.882L148.771 152.844C148.77 152.844 148.769 152.843 148.768 152.843L148.69 152.872L148.695 152.821C148.114 152.639 147.508 152.545 146.898 152.545C146.261 152.545 145.627 152.644 145.02 152.837L145.016 152.882L144.939 152.855L144.829 152.873L144.834 152.82C144.254 152.628 143.647 152.531 143.035 152.531C142.397 152.532 141.764 152.633 141.157 152.831L141.154 152.872L141.092 152.848L140.961 152.872L140.967 152.805C140.387 152.61 139.781 152.509 139.169 152.507C138.53 152.508 137.896 152.614 137.292 152.82L137.287 152.882L137.197 152.847L137.1 152.872L137.104 152.814C136.525 152.61 135.916 152.504 135.302 152.502C134.663 152.503 134.03 152.614 133.429 152.829L133.425 152.885L133.334 152.852L133.233 152.872L133.237 152.818C132.66 152.607 132.05 152.499 131.435 152.498C130.794 152.498 130.159 152.611 129.559 152.833V152.844L129.543 152.838C129.534 152.841 129.525 152.845 129.516 152.848L129.37 152.872L129.376 152.773C128.798 152.558 128.186 152.446 127.568 152.446C126.93 152.448 126.297 152.563 125.699 152.786L125.696 152.84L125.63 152.813L125.509 152.873L125.515 152.77C124.936 152.549 124.322 152.434 123.702 152.432C123.063 152.433 122.43 152.551 121.834 152.78L121.829 152.882L121.711 152.836L121.643 152.872L121.646 152.81C121.069 152.584 120.455 152.468 119.835 152.469C119.196 152.469 118.563 152.589 117.969 152.821L117.967 152.868L117.905 152.843L117.779 152.872L117.782 152.793C117.205 152.563 116.589 152.445 115.968 152.446C115.329 152.447 114.696 152.569 114.102 152.803L114.1 152.867L114.021 152.834L113.913 152.872L113.915 152.792C113.339 152.562 112.726 152.443 112.105 152.441C111.466 152.442 110.832 152.564 110.238 152.802L110.237 152.868L110.159 152.833L110.05 152.872L110.052 152.788C109.475 152.558 108.86 152.439 108.238 152.437C107.591 152.437 106.95 152.563 106.353 152.81V152.868L106.283 152.837L106.184 152.872L106.185 152.795C105.596 152.556 104.966 152.432 104.33 152.432C103.713 152.432 103.101 152.549 102.527 152.775V152.9L102.396 152.844C102.392 152.843 102.387 152.84 102.383 152.839L102.322 152.872V152.815C101.743 152.585 101.124 152.465 100.5 152.465C99.8609 152.465 99.2281 152.589 98.6367 152.831L98.6377 152.868L98.5889 152.846L98.4541 152.872L98.4531 152.791C97.8675 152.555 97.2422 152.432 96.6104 152.432C95.9822 152.432 95.3601 152.552 94.7773 152.786L94.7793 152.867L94.6768 152.827L94.5781 152.872L94.5762 152.788C93.996 152.557 93.3777 152.437 92.7529 152.436C92.1215 152.437 91.4959 152.56 90.9111 152.798L90.9131 152.843L90.8545 152.82L90.7256 152.872L90.7227 152.769C90.1452 152.542 89.5303 152.422 88.9092 152.418C88.2708 152.417 87.6386 152.541 87.0479 152.783L87.0508 152.848L86.9697 152.818L86.8633 152.872L86.8594 152.776C86.2806 152.549 85.665 152.43 85.043 152.427C84.4028 152.429 83.7686 152.555 83.1768 152.799L83.1787 152.843L83.1211 152.821L82.9971 152.872L82.9922 152.772C82.4035 152.546 81.7786 152.428 81.1475 152.427C80.5204 152.43 79.8991 152.549 79.3164 152.78L79.3213 152.868L79.2148 152.827L79.1299 152.872L79.125 152.794C78.5369 152.572 77.914 152.457 77.2852 152.456C76.6573 152.46 76.0354 152.579 75.4502 152.806L75.4551 152.886L75.3447 152.844L75.2676 152.872L75.2637 152.814C74.6717 152.595 74.0455 152.483 73.4141 152.483C72.7907 152.484 72.1731 152.599 71.5908 152.821L71.5928 152.844L71.5605 152.832C71.5543 152.834 71.5482 152.837 71.542 152.84L71.4062 152.868L71.3994 152.772C70.8062 152.561 70.1815 152.453 69.5518 152.451C68.9264 152.455 68.3066 152.569 67.7207 152.787L67.7266 152.867L67.6182 152.83L67.5381 152.868L67.5322 152.801C66.9406 152.592 66.3181 152.484 65.6904 152.483C65.0659 152.486 64.4463 152.597 63.8594 152.81L63.8643 152.868L63.7793 152.839L63.7051 152.867L63.7002 152.811C63.0962 152.604 62.462 152.498 61.8232 152.498H61.8086C61.1897 152.5 60.5759 152.605 59.9912 152.807L59.9971 152.868L59.9062 152.836L59.8193 152.868L59.8125 152.805C59.2129 152.611 58.5866 152.511 57.9561 152.511C57.3341 152.511 56.7161 152.613 56.1279 152.814L56.1338 152.868L56.0488 152.841L55.9707 152.868L55.9648 152.815C55.35 152.623 54.7097 152.526 54.0654 152.526C53.4544 152.527 52.8468 152.622 52.2646 152.806L52.2725 152.868L52.1699 152.837L52.0801 152.868L52.0732 152.808C51.4739 152.631 50.8518 152.54 50.2266 152.54H50.2031C49.5914 152.543 48.9833 152.634 48.3975 152.809L48.4053 152.867L48.3037 152.839L48.2236 152.868L48.2168 152.815C47.6039 152.647 46.9715 152.561 46.3359 152.558C45.7266 152.56 45.1207 152.646 44.5352 152.814L44.543 152.868L44.4424 152.84L44.3555 152.862L44.3486 152.814C43.144 152.497 41.8782 152.496 40.6729 152.809L40.6816 152.868L40.5586 152.839L40.4893 152.858L40.4834 152.82C39.2494 152.513 37.9578 152.518 36.7256 152.835H36.627L36.2256 150.318L36.2236 150.32L35.7891 147.592L35.792 147.59L35.3867 145.045L35.3887 145.044L35.0137 142.684L35.0117 142.685V142.67L34.9844 142.498L35.0049 142.489C35.0043 142.456 35.0058 142.423 35.0127 142.39C35.0248 142.333 35.0479 142.279 35.0811 142.231C35.2647 142.071 35.5024 141.986 35.7461 141.993C35.8533 141.981 35.9597 141.962 36.0645 141.936L37.3047 141.576L38.1758 141.328L39.3838 140.991C40.0366 140.811 40.5281 140.682 40.9229 140.593L40.9941 140.565C41.6823 140.369 42.3995 140.162 43.083 139.989C43.7662 139.816 44.3044 139.69 44.749 139.615L44.8555 139.596C45.6191 139.375 46.2588 139.204 46.8184 139.066C47.3769 138.928 47.9433 138.82 48.5137 138.744L48.6133 138.73C49.3354 138.521 49.9688 138.357 50.54 138.229C51.0927 138.098 51.6534 138.006 52.2188 137.952L52.2246 137.948H52.2578C53.0208 137.719 53.6948 137.545 54.3174 137.419C54.8929 137.298 55.4766 137.22 56.0635 137.184H56.0742C56.7402 136.981 57.4166 136.814 58.1006 136.684C58.6591 136.573 59.2266 136.51 59.7959 136.495V136.487H59.8232C60.4958 136.279 61.1809 136.114 61.874 135.991C62.4579 135.889 63.0499 135.841 63.6426 135.846C64.3088 135.645 64.9882 135.49 65.6758 135.383C66.2513 135.29 66.8346 135.255 67.417 135.277V135.274H67.4541C68.1212 135.066 68.8038 134.909 69.4951 134.806C70.1028 134.72 70.7189 134.7 71.3311 134.746H71.4443C72.0616 134.569 72.6914 134.439 73.3291 134.362C73.9413 134.284 74.5607 134.275 75.1748 134.336C75.8283 134.14 76.4992 134.006 77.1777 133.936C77.7998 133.866 78.4278 133.866 79.0498 133.936H79.1172C79.7446 133.762 80.3863 133.645 81.0352 133.59C81.6582 133.534 82.2857 133.552 82.9043 133.644C83.5561 133.459 84.2261 133.344 84.9023 133.3C85.5375 133.252 86.1761 133.283 86.8037 133.391C87.4529 133.213 88.1196 133.105 88.792 133.069C89.4338 133.036 90.0773 133.08 90.709 133.198C91.3524 133.029 92.0128 132.933 92.6777 132.911C93.3271 132.886 93.9769 132.941 94.6133 133.073C95.8982 132.749 97.2409 132.725 98.5361 133.006ZM38.21 149.969C37.598 150.002 36.9911 150.104 36.4023 150.274L36.7773 152.643C37.9851 152.353 39.2444 152.353 40.4521 152.643L40.082 150.096C39.4653 149.979 38.8368 149.936 38.21 149.969ZM162.769 149.965C162.141 149.931 161.513 149.976 160.896 150.096L160.526 152.638C161.116 152.492 161.721 152.415 162.328 152.409V152.404H162.375C162.985 152.406 163.594 152.48 164.188 152.624L164.562 150.283C163.978 150.108 163.376 150.001 162.769 149.965ZM158.901 149.75C158.273 149.714 157.643 149.764 157.028 149.899L156.664 152.634C157.254 152.476 157.861 152.394 158.471 152.389V152.404H158.508C159.118 152.406 159.726 152.483 160.317 152.636L160.685 150.114L160.681 150.115L160.687 150.069C160.107 149.888 159.507 149.781 158.901 149.75ZM45.9707 149.534C45.3484 149.563 44.7325 149.675 44.1406 149.87L44.1455 149.904L44.5098 152.624C45.1029 152.459 45.7155 152.374 46.3311 152.371C46.9583 152.371 47.583 152.45 48.1904 152.606L47.8311 149.754L47.8291 149.755L47.8213 149.698C47.2152 149.557 46.5923 149.501 45.9707 149.534ZM43.9502 149.874C43.3445 149.742 42.7234 149.695 42.1045 149.731C41.4832 149.763 40.8683 149.874 40.2754 150.062L40.2783 150.082L40.2744 150.081L40.6455 152.623C41.2411 152.468 41.8542 152.388 42.4697 152.385C43.0935 152.378 43.7156 152.451 44.3203 152.604L43.9629 149.929L43.958 149.932L43.9502 149.874ZM75.0381 134.521C74.4752 134.474 73.9089 134.486 73.3486 134.558C72.6883 134.631 72.035 134.759 71.3965 134.942L70.8955 135.944C70.8516 136.026 70.8009 136.104 70.7451 136.178C70.6518 136.284 70.5815 136.408 70.5381 136.543C70.4983 136.666 70.4822 136.795 70.4902 136.924C70.4278 136.925 70.3659 136.926 70.3047 136.927C70.3046 136.924 70.3047 136.92 70.3047 136.917C70.2909 136.757 70.307 136.596 70.3545 136.443C70.4044 136.282 70.4863 136.133 70.5957 136.005C70.6447 135.941 70.6884 135.874 70.7266 135.803L71.1953 134.89C70.6421 134.859 70.0867 134.883 69.5381 134.961C68.8644 135.071 68.2002 135.236 67.5527 135.453V135.433C67.5064 135.509 67.4612 135.581 67.4189 135.65C67.2494 135.932 67.109 136.166 66.9727 136.398C66.9222 136.478 66.8625 136.552 66.7949 136.618C66.6984 136.708 66.6231 136.819 66.5723 136.94C66.5278 137.063 66.5099 137.194 66.5225 137.325C67.1159 137.059 67.7486 136.89 68.3955 136.824C69.0154 136.758 69.6417 136.793 70.25 136.928C68.2065 136.977 66.8575 137.13 65.9717 137.524C65.4665 137.447 64.9529 137.437 64.4443 137.498C63.7963 137.571 63.1641 137.749 62.5732 138.025L62.876 141.518C62.9111 141.503 62.9471 141.49 62.9824 141.475C62.987 141.473 62.9915 141.471 62.9961 141.469C63.2118 141.381 63.4321 141.306 63.6562 141.244C63.6945 141.233 63.733 141.224 63.7715 141.214C63.7958 141.207 63.8203 141.202 63.8447 141.196C64.0108 141.155 64.1785 141.121 64.3477 141.094C64.3462 141.163 64.3446 141.233 64.3438 141.303C63.8453 141.378 63.3582 141.518 62.8955 141.72V141.735L62.8984 141.772L62.9443 142.308L63.2002 145.218C63.7787 144.983 64.3914 144.844 65.0146 144.803C64.9773 144.872 64.942 144.944 64.9092 145.018C64.3286 145.063 63.7575 145.194 63.2168 145.412L63.2217 145.462L63.2197 145.461L63.5205 148.927C63.8346 148.807 64.1581 148.715 64.4873 148.652C64.4868 148.715 64.4867 148.779 64.4863 148.843C64.1664 148.903 63.8515 148.989 63.5459 149.104L63.8428 152.623C64.4292 152.418 65.046 152.313 65.667 152.31C66.289 152.312 66.9069 152.414 67.4971 152.61L67.3613 150.879H67.585L67.707 152.604C68.2939 152.393 68.9134 152.286 69.5371 152.287C70.1658 152.287 70.7905 152.389 71.3867 152.589L71.2666 150.879H71.4551L71.5752 152.604C72.1607 152.388 72.7801 152.278 73.4043 152.278C74.0306 152.28 74.6526 152.386 75.2441 152.592L75.1406 150.879H75.3359L75.4404 152.6C76.0261 152.383 76.6457 152.27 77.2705 152.268C77.901 152.273 78.5257 152.389 79.1162 152.61L79.0264 150.879H79.2412L79.3311 152.6C79.9169 152.376 80.5389 152.262 81.166 152.263C81.7864 152.263 82.402 152.371 82.9844 152.585L82.8213 148.718C82.8783 148.877 82.9447 149.028 83.0225 149.171L83.168 152.591C83.7534 152.368 84.3747 152.253 85.001 152.254C85.6277 152.252 86.2497 152.365 86.8359 152.587L86.7783 150.921C86.8455 150.926 86.9142 150.931 86.9844 150.935L87.042 152.595C87.6285 152.368 88.2528 152.252 88.8818 152.254C89.5083 152.255 90.1298 152.368 90.7168 152.587L90.6787 151.041C90.7418 151.041 90.8053 151.042 90.8691 151.042L90.9082 152.595C91.4946 152.367 92.1187 152.25 92.748 152.25C93.3716 152.25 93.9899 152.363 94.5732 152.583L94.5488 150.979C94.6169 150.976 94.6839 150.972 94.75 150.968L94.7744 152.591C95.955 152.139 97.2608 152.142 98.4404 152.596V150.272L98.4395 150.141C98.5029 150.095 98.564 150.047 98.623 149.997L98.6357 152.592C99.8165 152.14 101.123 152.142 102.303 152.596V150.879H102.527V152.596C103.704 152.14 105.009 152.137 106.188 152.589L106.213 150.879H106.4L106.375 152.615C106.973 152.388 107.608 152.272 108.248 152.273C108.866 152.274 109.478 152.387 110.056 152.606L110.098 150.879H110.285L110.243 152.594C110.833 152.368 111.459 152.253 112.091 152.254C112.715 152.253 113.334 152.367 113.917 152.591L113.976 150.879H114.168L114.109 152.596C114.7 152.374 115.327 152.259 115.958 152.259C116.58 152.258 117.197 152.372 117.779 152.592L117.853 150.879H118.055L117.985 152.614C118.585 152.392 119.219 152.28 119.858 152.282C120.472 152.282 121.081 152.391 121.656 152.605L121.761 150.569C121.821 150.588 121.883 150.603 121.946 150.62L121.844 152.596C122.437 152.382 123.062 152.27 123.692 152.268C124.314 152.271 124.93 152.382 125.514 152.596L125.609 151.007C125.674 151.008 125.739 151.01 125.806 151.011L125.712 152.575L125.711 152.606L125.71 152.615C126.303 152.399 126.929 152.285 127.56 152.278C128.179 152.277 128.795 152.385 129.376 152.6L129.483 151.041C129.551 151.04 129.619 151.04 129.685 151.04L129.576 152.6C130.17 152.392 130.796 152.286 131.426 152.287C132.045 152.287 132.659 152.393 133.242 152.6L133.382 150.795C133.454 150.78 133.523 150.763 133.592 150.747L133.446 152.61C134.042 152.406 134.666 152.299 135.296 152.296C135.912 152.3 136.522 152.405 137.104 152.605L137.409 149.108C136.966 148.937 136.504 148.825 136.033 148.771C136.055 148.708 136.075 148.643 136.095 148.576C136.556 148.629 137.01 148.738 137.446 148.902L137.748 145.407C137.298 145.219 136.829 145.092 136.353 145.026C136.348 144.956 136.342 144.887 136.336 144.82C136.829 144.883 137.313 145.008 137.774 145.194L138.071 141.78L138.064 141.782L138.07 141.709C137.658 141.526 137.226 141.392 136.784 141.308C136.604 141.275 136.422 141.25 136.238 141.234C135.597 141.177 134.951 141.23 134.328 141.393L134.289 141.891C134.226 141.87 134.161 141.849 134.095 141.83L134.131 141.371C133.633 141.147 133.106 140.997 132.566 140.926C132.554 140.925 132.542 140.922 132.529 140.921C132.449 140.911 132.368 140.904 132.287 140.897C132.196 140.89 132.105 140.885 132.015 140.883C131.463 140.868 130.91 140.936 130.377 141.084L130.373 141.149L130.372 141.148L130.353 141.427C130.287 141.426 130.222 141.426 130.155 141.426L130.181 141.065C129.821 140.904 129.446 140.783 129.062 140.702C128.823 140.652 128.58 140.62 128.336 140.602C127.69 140.559 127.041 140.633 126.421 140.818L126.377 141.538C126.312 141.544 126.249 141.552 126.188 141.558L126.234 140.805C125.643 140.546 125.011 140.395 124.366 140.359C124.267 140.353 124.167 140.35 124.067 140.35V140.153H124.403C125.039 140.19 125.664 140.334 126.251 140.582L126.284 140.032H126.494L126.459 140.618C126.688 140.553 126.922 140.504 127.157 140.469C127.189 140.465 127.22 140.46 127.252 140.456C127.327 140.446 127.402 140.438 127.477 140.431C127.638 140.416 127.8 140.406 127.962 140.405H128.351C128.99 140.45 129.616 140.607 130.202 140.865L130.261 140.032H130.453L130.391 140.907C130.473 140.885 130.557 140.865 130.641 140.846C131.036 140.751 131.44 140.697 131.847 140.691H132.315C132.948 140.744 133.567 140.899 134.148 141.152L134.236 140.032H134.425L134.336 141.162C134.791 141.058 135.257 141.011 135.724 141.019H136.243C136.879 141.077 137.501 141.234 138.087 141.487L138.388 138.039V138.009C137.804 137.737 137.179 137.56 136.538 137.489C136.273 137.456 136.007 137.443 135.741 137.449V137.26C135.77 137.26 135.798 137.259 135.826 137.259H135.836C136.077 137.259 136.318 137.275 136.557 137.306C137.195 137.375 137.818 137.544 138.403 137.805C138.406 137.702 138.39 137.598 138.354 137.5C138.299 137.354 138.203 137.227 138.079 137.134C138.005 137.071 137.939 137 137.882 136.923L137.229 136.009C136.593 135.813 135.945 135.659 135.288 135.551C134.75 135.464 134.204 135.429 133.659 135.443L134.169 136.296C134.212 136.365 134.263 136.428 134.319 136.487C134.439 136.6 134.531 136.739 134.589 136.893C134.611 136.952 134.625 137.012 134.637 137.073H134.423C134.419 137.058 134.417 137.043 134.412 137.029C134.364 136.876 134.277 136.737 134.16 136.628C134.095 136.56 134.037 136.487 133.986 136.408L133.41 135.451C132.77 135.258 132.116 135.115 131.454 135.022C130.902 134.945 130.344 134.921 129.787 134.952C129.96 135.308 130.1 135.584 130.255 135.865C130.294 135.937 130.339 136.007 130.391 136.071C130.498 136.2 130.579 136.349 130.628 136.509C130.676 136.668 130.693 136.835 130.677 137C130.77 136.978 130.862 136.957 130.956 136.94C131.281 136.872 131.613 136.835 131.945 136.829V136.815C132.156 136.815 132.367 136.815 132.577 136.847C132.961 136.887 133.34 136.963 133.709 137.073H132.845C132.754 137.06 132.663 137.049 132.572 137.04C132.094 136.987 131.612 136.999 131.138 137.073H130.246C130.006 136.973 129.76 136.891 129.509 136.825C129.213 136.75 128.912 136.698 128.607 136.67C127.963 136.608 127.313 136.664 126.688 136.834L126.674 137.073H126.462L126.475 136.87L126.459 136.876V136.794C126.078 136.625 125.681 136.498 125.273 136.417C125.062 136.377 124.848 136.348 124.633 136.333C123.987 136.28 123.337 136.345 122.714 136.525L122.686 137.073H122.448L122.478 136.499C121.88 136.242 121.242 136.091 120.593 136.056C119.951 136.013 119.307 136.088 118.691 136.275L118.523 140.185C119.049 140.023 119.597 139.941 120.147 139.942H120.384V140.132C119.752 140.105 119.12 140.195 118.52 140.396L118.351 144.324C118.897 144.141 119.47 144.048 120.046 144.048H120.229C120.28 144.049 120.332 144.052 120.384 144.055V144.254C120.321 144.249 120.257 144.246 120.194 144.244C119.688 144.226 119.183 144.284 118.694 144.413C118.573 144.445 118.453 144.483 118.334 144.524L118.156 148.453C118.718 148.259 119.308 148.159 119.902 148.158C119.911 148.23 119.922 148.3 119.934 148.368C119.383 148.366 118.835 148.448 118.311 148.613C118.256 148.632 118.201 148.651 118.146 148.672L118.145 148.729L118.141 148.727L118.102 149.693V147.712H117.985L118.121 144.525C117.868 144.419 117.607 144.333 117.342 144.269C117.377 144.21 117.41 144.15 117.441 144.088C117.68 144.147 117.914 144.222 118.143 144.313L118.309 140.456L118.308 140.457L118.311 140.38C118.157 140.315 118.002 140.258 117.844 140.208C117.839 140.13 117.832 140.055 117.825 139.981C117.992 140.032 118.157 140.09 118.318 140.157L118.48 136.244C117.884 135.985 117.245 135.834 116.595 135.803C115.947 135.765 115.297 135.848 114.68 136.047L114.646 137.002C114.58 136.996 114.51 136.99 114.438 136.985L114.47 136.048C113.868 135.789 113.223 135.646 112.568 135.626C111.917 135.593 111.266 135.688 110.65 135.903L110.649 135.956V135.971L110.648 135.97L110.625 136.909C110.558 136.909 110.491 136.909 110.423 136.909L110.448 135.897C109.271 135.418 107.965 135.369 106.758 135.755C106.718 135.768 106.678 135.781 106.638 135.796L106.624 135.869L106.607 135.862L106.605 136.055L106.596 136.954C106.536 136.956 106.478 136.959 106.42 136.962L106.437 135.799C105.829 135.554 105.181 135.426 104.526 135.42H104.451C103.824 135.417 103.201 135.525 102.611 135.74L102.6 137.786C102.518 137.843 102.44 137.902 102.369 137.967V135.753C102.219 135.695 102.067 135.644 101.914 135.6C101.432 135.464 100.936 135.395 100.439 135.394C99.8115 135.395 99.184 135.506 98.5859 135.728V135.813L98.5576 135.801L98.5684 137.908C98.5105 137.861 98.4506 137.816 98.3887 137.773V135.81L98.3711 135.822V135.741C97.1316 135.291 95.7694 135.313 94.5449 135.803H94.5312C94.5296 135.804 94.528 135.805 94.5264 135.805L94.542 136.971C94.4797 136.969 94.4165 136.966 94.3525 136.964L94.3359 135.801C93.7227 135.579 93.0719 135.477 92.4199 135.5C91.7624 135.512 91.1131 135.648 90.5059 135.9V135.958L90.502 135.956L90.5254 136.909C90.4619 136.909 90.3987 136.909 90.3359 136.91L90.3115 135.901C89.6965 135.692 89.0476 135.598 88.3984 135.626C88.0411 135.64 87.687 135.69 87.3408 135.773C87.0499 135.846 86.7647 135.942 86.4893 136.063V136.118L86.4854 136.116L86.5156 137.05C86.4456 137.055 86.3777 137.064 86.3115 137.07L86.2783 136.051C85.7377 135.878 85.1732 135.792 84.6064 135.797C84.5333 135.798 84.4598 135.799 84.3867 135.803C84.2782 135.809 84.1702 135.818 84.0625 135.83C83.5162 135.892 82.9818 136.035 82.4775 136.258L82.4727 136.255L82.6338 139.985C82.563 140.396 82.5275 140.74 82.5107 141.498L82.4629 140.396C81.9062 140.212 81.3228 140.124 80.7373 140.134C80.7325 140.068 80.7265 140.004 80.7207 139.941C81.3034 139.931 81.8883 140.013 82.4531 140.19L82.3789 138.41L82.2852 136.266C82.0127 136.182 81.7344 136.12 81.4531 136.08C81.0966 136.031 80.7355 136.018 80.375 136.043C79.7191 136.083 79.0751 136.24 78.4756 136.509L78.5068 137.13C78.4465 137.117 78.3834 137.103 78.3164 137.092L78.2871 136.515C77.6668 136.339 77.0197 136.275 76.377 136.328C75.7245 136.376 75.0853 136.539 74.4902 136.811V136.847L74.4863 136.846L74.4902 136.914C74.4277 136.913 74.3642 136.912 74.2998 136.912L74.2939 136.812C73.6768 136.646 73.0346 136.593 72.3984 136.656C71.9729 136.695 71.5536 136.78 71.1484 136.912C70.9549 136.914 70.7668 136.918 70.584 136.922C70.7328 136.86 70.8841 136.806 71.0371 136.757C71.4701 136.612 71.9188 136.518 72.375 136.477C73.0139 136.414 73.6583 136.465 74.2793 136.626C74.2539 136.3 74.3396 135.976 74.5234 135.706C74.568 135.637 74.6073 135.565 74.6406 135.49L75.0381 134.521ZM49.8291 149.347C49.8093 149.348 49.7893 149.349 49.7695 149.35C49.175 149.384 48.5877 149.499 48.0254 149.694L48.0312 149.735L48.0205 149.732L48.2314 151.452L48.3779 152.62C48.9693 152.446 49.5827 152.355 50.1992 152.352H50.2266C50.8429 152.352 51.4568 152.436 52.0498 152.604L51.7188 149.688L51.707 149.594L51.7061 149.595L51.6992 149.538C51.089 149.381 50.4585 149.317 49.8291 149.347ZM155.029 149.534C154.4 149.504 153.77 149.562 153.157 149.707L152.797 152.614C153.387 152.453 153.997 152.371 154.608 152.371H154.641C155.253 152.375 155.862 152.458 156.452 152.619L156.822 149.871C156.242 149.679 155.639 149.565 155.029 149.534ZM57.5957 149.014C56.9722 149.04 56.3559 149.162 55.7705 149.379L55.7715 149.38H55.7842L56.1211 152.615C56.7103 152.422 57.3263 152.324 57.9463 152.325C58.5668 152.325 59.1843 152.419 59.7773 152.601L59.4727 149.301L59.4678 149.304L59.4609 149.242C58.8554 149.067 58.2256 148.99 57.5957 149.014ZM149.052 149.525C147.871 149.104 146.591 149.054 145.382 149.383L145.063 152.421L145.045 152.615C145.641 152.432 146.261 152.339 146.885 152.339C147.501 152.34 148.113 152.433 148.701 152.615L149.052 149.525ZM151.135 149.347C150.506 149.318 149.876 149.383 149.267 149.542L148.915 152.608C149.513 152.438 150.133 152.352 150.755 152.352C151.368 152.356 151.978 152.445 152.567 152.615L152.933 149.693C152.353 149.493 151.747 149.377 151.135 149.347ZM53.709 149.174C53.0883 149.201 52.4751 149.321 51.8896 149.529L52.2432 152.613C52.834 152.434 53.4481 152.342 54.0654 152.339H54.0928C54.7111 152.338 55.3266 152.428 55.9189 152.605L55.5869 149.439V149.44L55.5801 149.384C54.9709 149.218 54.3396 149.148 53.709 149.174ZM143.367 149.014C142.738 148.993 142.108 149.071 141.503 149.246L141.18 152.602C141.776 152.417 142.397 152.324 143.021 152.325C143.636 152.326 144.248 152.422 144.833 152.61L145.17 149.375C144.592 149.161 143.983 149.04 143.367 149.014ZM63.3477 149.112C62.143 148.746 60.8508 148.79 59.6738 149.238L59.9736 152.609C60.5618 152.411 61.1791 152.31 61.7998 152.31C62.4352 152.307 63.0672 152.405 63.6719 152.6L63.3711 149.168L63.3535 149.178L63.3477 149.112ZM141.295 149.235C140.116 148.788 138.82 148.745 137.615 149.116L137.61 149.174L137.608 149.173L137.312 152.593C137.908 152.404 138.53 152.309 139.155 152.31C139.773 152.311 140.386 152.41 140.972 152.605L141.295 149.235ZM163.166 147.292C162.548 147.224 161.925 147.235 161.311 147.324L160.938 149.862C161.397 149.782 161.862 149.743 162.328 149.745H162.797C163.409 149.778 164.016 149.883 164.604 150.058L164.976 147.71C164.391 147.501 163.783 147.36 163.166 147.292ZM39.6816 147.338C39.0606 147.248 38.4306 147.237 37.8066 147.305C37.19 147.373 36.5841 147.516 36.001 147.727L36.3701 150.052C36.9637 149.875 37.5763 149.769 38.1953 149.736C38.8149 149.696 39.4371 149.734 40.0469 149.849L39.6816 147.338ZM43.5469 146.974C42.9297 146.868 42.3005 146.849 41.6777 146.917C41.0615 146.985 40.4571 147.134 39.8789 147.357L40.2471 149.869H40.248C40.3882 149.825 40.5296 149.786 40.6719 149.751C40.6871 149.747 40.7025 149.744 40.7178 149.74C40.8527 149.707 40.9885 149.679 41.125 149.654C41.1471 149.65 41.1693 149.646 41.1914 149.642C41.3253 149.619 41.4597 149.598 41.5947 149.583C41.608 149.581 41.6214 149.58 41.6348 149.579C41.7783 149.563 41.9229 149.551 42.0674 149.544C42.5305 149.518 42.9945 149.537 43.4531 149.599C43.46 149.6 43.4668 149.601 43.4736 149.602C43.6142 149.622 43.7542 149.646 43.8936 149.674C43.9036 149.676 43.9138 149.676 43.9238 149.678L43.9014 149.501L43.5566 146.993L43.5508 146.997L43.5469 146.974ZM159.295 146.884C158.67 146.818 158.04 146.839 157.421 146.946L157.053 149.675C157.534 149.579 158.023 149.532 158.513 149.534H158.911C159.524 149.566 160.131 149.673 160.718 149.855L161.085 147.339H161.083L161.088 147.301C160.51 147.087 159.908 146.947 159.295 146.884ZM47.4346 146.593C46.8187 146.472 46.188 146.444 45.5635 146.506C44.9413 146.564 44.3298 146.706 43.7461 146.929L44.1152 149.678C45.23 149.314 46.4174 149.237 47.5674 149.454L47.7969 149.502L47.4424 146.645L47.4414 146.646L47.4346 146.593ZM155.437 146.529C154.811 146.471 154.18 146.501 153.563 146.618L153.204 149.517C153.436 149.466 153.67 149.425 153.905 149.398C154.164 149.363 154.426 149.343 154.688 149.338L154.664 149.333H155.015C155.63 149.365 156.24 149.477 156.827 149.666C156.897 149.137 156.954 148.729 157.01 148.312L157.194 146.918C157.123 146.89 157.051 146.863 156.979 146.838C156.478 146.678 155.961 146.572 155.437 146.529ZM51.3232 146.259C50.712 146.131 50.085 146.095 49.4629 146.15C48.8372 146.204 48.2226 146.347 47.6377 146.575L48.001 149.497C48.5859 149.297 49.1969 149.182 49.8145 149.155C50.4397 149.126 51.0659 149.185 51.6748 149.33L51.3232 146.259ZM151.533 146.145C150.9 146.09 150.263 146.128 149.642 146.26L149.287 149.332C149.799 149.208 150.323 149.147 150.85 149.15H151.163C151.78 149.178 152.39 149.293 152.975 149.492L153.34 146.571C152.761 146.344 152.153 146.2 151.533 146.145ZM55.2197 145.955C54.6088 145.813 53.9793 145.77 53.3545 145.822C52.7551 145.865 52.1652 145.996 51.6045 146.211C51.5742 146.223 51.5438 146.234 51.5137 146.247L51.5186 146.286L51.5137 146.284L51.8623 149.332C52.4514 149.126 53.068 149.009 53.6914 148.982C54.3199 148.957 54.9489 149.022 55.5586 149.176L55.2275 146.017L55.2266 146.018L55.2197 145.955ZM147.638 145.817C147.01 145.765 146.378 145.813 145.765 145.958L145.428 149.178C145.945 149.045 146.477 148.978 147.011 148.977H147.282C147.901 149.004 148.512 149.121 149.096 149.327L149.448 146.241C148.869 146.01 148.259 145.867 147.638 145.817ZM59.1182 145.676C58.5075 145.524 57.8765 145.47 57.249 145.517C56.6168 145.562 55.9957 145.708 55.4092 145.948L55.5029 146.846L55.749 149.181C56.8897 148.768 58.1269 148.706 59.3018 149.001C59.3485 149.012 59.3949 149.024 59.4414 149.037L59.1182 145.676ZM145.555 145.937C144.384 145.462 143.093 145.368 141.866 145.67L141.86 145.733L141.84 145.724L141.521 149.037C142.052 148.89 142.601 148.816 143.152 148.818H143.396C144.018 148.844 144.631 148.964 145.217 149.174L145.555 145.937ZM63.0254 145.424C62.4158 145.259 61.7834 145.197 61.1533 145.237C60.5198 145.28 59.8968 145.424 59.3096 145.666L59.3125 145.69L59.3115 145.689L59.6338 149.037C60.8205 148.6 62.1164 148.556 63.3301 148.912L63.0254 145.424ZM139.843 145.237C139.261 145.195 138.676 145.244 138.109 145.382C138.053 145.395 137.997 145.41 137.941 145.426L137.643 148.907C138.181 148.753 138.739 148.674 139.3 148.673H139.521C140.14 148.696 140.751 148.816 141.334 149.026L141.659 145.656C141.08 145.419 140.467 145.278 139.843 145.237ZM81.002 148.158C81.5856 148.154 82.1697 148.245 82.7314 148.432C82.7512 148.506 82.7721 148.579 82.7959 148.65C82.2157 148.443 81.6082 148.342 81.002 148.349V148.158ZM99.668 148.047C100.308 147.947 100.962 147.966 101.596 148.106C101.594 148.176 101.593 148.247 101.592 148.32C100.946 148.17 100.277 148.151 99.625 148.26C99.6347 148.216 99.647 148.171 99.6553 148.126C99.6601 148.099 99.6634 148.072 99.668 148.047ZM128.424 144.394C128.811 144.437 129.193 144.519 129.562 144.641C129.577 144.646 129.592 144.651 129.606 144.656C129.661 144.675 129.715 144.694 129.77 144.715C129.804 144.727 129.838 144.74 129.872 144.754C129.889 144.76 129.906 144.766 129.923 144.773L129.945 144.449C130.012 144.452 130.078 144.455 130.143 144.459L130.12 144.787C130.522 144.669 130.937 144.598 131.354 144.573C131.384 144.578 131.412 144.581 131.437 144.586C131.631 144.621 131.785 144.675 131.906 144.756C131.533 144.742 131.158 144.765 130.787 144.828C130.562 144.867 130.339 144.922 130.119 144.99L129.899 147.992C129.838 147.993 129.774 147.994 129.708 147.995L129.917 144.977C129.871 144.958 129.824 144.938 129.777 144.92C129.272 144.726 128.742 144.607 128.203 144.566C128.078 144.557 127.953 144.552 127.828 144.551C127.3 144.551 126.775 144.629 126.27 144.783C126.244 144.791 126.218 144.799 126.192 144.807L125.999 147.966C125.935 147.963 125.873 147.96 125.813 147.957L126 144.873L125.991 144.877L125.994 144.8C125.956 144.783 125.917 144.767 125.878 144.752C125.578 144.636 125.27 144.546 124.955 144.485C125.116 144.458 125.303 144.435 125.521 144.42C125.685 144.469 125.847 144.525 126.007 144.59L126.018 144.396C126.079 144.394 126.141 144.39 126.206 144.388L126.194 144.588C126.564 144.479 126.944 144.411 127.328 144.382C127.694 144.383 128.064 144.386 128.424 144.394ZM114.275 147.712H114.086L114.152 145.755C114.218 145.747 114.283 145.739 114.347 145.73L114.275 147.712ZM110.367 147.712H110.174L110.215 146.033C110.28 146.029 110.347 146.025 110.415 146.02L110.367 147.712ZM106.464 147.712H106.263L106.28 146.374C106.331 146.36 106.395 146.346 106.482 146.332L106.464 147.712ZM79.0566 147.712H78.8662L78.7471 145.388C78.8109 145.366 78.8726 145.342 78.9326 145.317L79.0566 147.712ZM75.1455 147.712H74.957L74.8467 145.92C74.9088 145.916 74.9717 145.912 75.0352 145.908L75.1455 147.712ZM71.2344 147.712H71.0459L70.9395 146.185C70.9999 146.181 71.0624 146.176 71.127 146.172L71.2344 147.712ZM39.2783 144.584C38.6554 144.524 38.0273 144.543 37.4092 144.642C36.7851 144.745 36.1754 144.921 35.5928 145.167L35.9619 147.521C36.0447 147.492 36.1292 147.467 36.2129 147.44C36.2578 147.425 36.3025 147.41 36.3477 147.396C36.3876 147.384 36.4276 147.372 36.4678 147.361C36.8991 147.235 37.341 147.147 37.7881 147.095C38.0854 147.062 38.3841 147.046 38.6826 147.049C38.7155 147.048 38.7484 147.048 38.7812 147.049C38.7871 147.049 38.793 147.049 38.7988 147.05C39.0822 147.052 39.3656 147.069 39.6475 147.103L39.2783 144.584ZM163.555 144.665C162.936 144.563 162.307 144.541 161.683 144.599L161.312 147.147C161.389 147.137 161.465 147.128 161.541 147.12C161.806 147.087 162.073 147.067 162.34 147.062C162.615 147.062 162.894 147.076 163.176 147.104C163.792 147.173 164.398 147.311 164.982 147.516L165.357 145.176C164.779 144.935 164.173 144.763 163.555 144.665ZM90.7021 144.146C91.9014 143.67 93.2342 143.649 94.4473 144.09L94.3955 140.678C94.4676 140.697 94.5357 140.717 94.5996 140.74L94.6494 144.093C94.9635 143.972 95.2881 143.881 95.6182 143.821C95.6182 143.868 95.6191 143.916 95.6191 143.965C95.6191 143.988 95.6182 144.011 95.6182 144.034C95.2884 144.096 94.9646 144.19 94.6523 144.317L94.6533 144.347L94.6523 144.346L94.6719 145.676L94.6924 147.173C94.6333 147.197 94.5707 147.219 94.5039 147.24L94.4619 144.289C93.8748 144.066 93.2503 143.957 92.6221 143.968C91.965 143.969 91.3147 144.1 90.708 144.352L90.7832 147.462C90.7187 147.462 90.6552 147.462 90.5928 147.462L90.5176 144.344C89.9256 144.125 89.2973 144.02 88.666 144.034C88.0139 144.044 87.3693 144.176 86.7666 144.426L86.7695 144.492L86.7676 144.491L86.8223 146.114C86.7107 145.598 86.6982 144.886 86.6982 143.903C86.6982 143.504 86.7007 143.151 86.7129 142.84L86.7598 144.221C87.9199 143.753 89.2078 143.714 90.3926 144.108C90.3998 144.11 90.4068 144.114 90.4141 144.116C90.4443 144.126 90.4748 144.135 90.5049 144.146L90.415 140.489C90.4797 140.489 90.5454 140.488 90.6123 140.488L90.7021 144.146ZM43.1484 144.017C42.7686 143.972 42.3861 143.959 42.0049 143.978C41.7687 143.99 41.533 144.016 41.2988 144.052C41.2515 144.06 41.2044 144.068 41.1572 144.076C41.1109 144.083 41.0647 144.092 41.0186 144.1C40.4865 144.202 39.9672 144.362 39.4697 144.577L39.8418 147.118C40.427 146.899 41.0384 146.757 41.6602 146.693C42.2787 146.626 42.9031 146.643 43.5166 146.744L43.1484 144.017ZM159.161 143.983C158.714 143.954 158.264 143.968 157.818 144.027L157.628 145.42C157.576 145.832 157.52 146.239 157.45 146.763C157.82 146.699 158.194 146.664 158.569 146.66C158.817 146.66 159.066 146.66 159.318 146.697C159.932 146.762 160.535 146.901 161.115 147.11L161.49 144.55C160.915 144.306 160.311 144.135 159.692 144.043C159.516 144.016 159.339 143.996 159.161 143.983ZM155.807 143.481C155.186 143.392 154.555 143.392 153.935 143.481L153.569 146.393C153.966 146.321 154.369 146.285 154.772 146.286V146.29C154.994 146.289 155.217 146.3 155.438 146.323C156.051 146.379 156.654 146.517 157.231 146.733C157.303 146.206 157.361 145.796 157.418 145.386L157.604 143.986C157.03 143.739 156.426 143.568 155.807 143.481ZM47.0391 143.481C46.4824 143.4 45.9176 143.391 45.3594 143.456C45.2965 143.463 45.2336 143.472 45.1709 143.481C44.5464 143.571 43.9365 143.744 43.3584 143.997L43.3633 144.029H43.3477L43.7119 146.732C44.2974 146.514 44.9091 146.373 45.5312 146.313C45.9545 146.274 46.3802 146.274 46.8027 146.312C46.808 146.313 46.8131 146.314 46.8184 146.314C46.8767 146.32 46.935 146.326 46.9932 146.333C47.0358 146.338 47.0785 146.343 47.1211 146.348C47.1566 146.353 47.1921 146.359 47.2275 146.364C47.2866 146.373 47.3455 146.383 47.4043 146.393L47.0391 143.481ZM122.18 146.294L122.163 146.614H121.965L122.026 145.434H122.229L122.18 146.294ZM50.9473 142.99C50.3288 142.882 49.6975 142.87 49.0752 142.953C48.4406 143.033 47.8207 143.205 47.2354 143.463L47.6006 146.384C48.7777 145.926 50.0611 145.814 51.2998 146.06L51.1221 144.497L50.9473 142.99ZM151.921 142.947C151.293 142.864 150.656 142.877 150.032 142.985L149.684 146.042C150.105 145.963 150.533 145.927 150.962 145.934H151.547C152.169 145.989 152.78 146.131 153.363 146.355L153.724 143.471H153.709L153.711 143.446C153.14 143.198 152.538 143.029 151.921 142.947ZM54.8604 142.537C54.248 142.42 53.6208 142.4 53.002 142.474C52.3588 142.544 51.7295 142.71 51.1367 142.968L51.1934 143.452L51.5068 146.05C52.0879 145.823 52.6992 145.683 53.3213 145.634C53.9502 145.581 54.5833 145.624 55.1992 145.759L54.8604 142.537ZM148.017 142.461C147.382 142.383 146.738 142.408 146.111 142.533L145.766 145.746C146.215 145.643 146.675 145.592 147.137 145.593C147.31 145.593 147.478 145.593 147.651 145.616C148.275 145.667 148.889 145.806 149.473 146.032L149.826 142.962C149.251 142.706 148.641 142.537 148.017 142.461ZM58.7744 142.114C58.1598 141.98 57.5276 141.947 56.9023 142.015C56.2627 142.085 55.6371 142.253 55.0488 142.513L55.0537 142.554L55.0488 142.552L55.3867 145.745C55.9743 145.512 56.5943 145.371 57.2246 145.325C57.8528 145.277 58.4851 145.328 59.0977 145.475L58.7744 142.114ZM144.108 142.011C143.474 141.942 142.832 141.977 142.209 142.113L141.887 145.458C142.348 145.351 142.82 145.301 143.293 145.307H143.762C144.387 145.354 145.001 145.494 145.585 145.722L145.922 142.509C145.347 142.251 144.735 142.083 144.108 142.011ZM62.6973 141.735C62.0848 141.588 61.4522 141.544 60.8252 141.604C60.184 141.668 59.5564 141.833 58.9688 142.097L58.9717 142.124L58.9688 142.123L59.291 145.469C59.8771 145.231 60.4976 145.088 61.1289 145.045C61.7583 145.004 62.3906 145.063 63.002 145.218L62.6973 141.735ZM140.185 141.613C139.547 141.547 138.903 141.589 138.279 141.739L137.975 145.227C138.453 145.102 138.946 145.037 139.44 145.035H139.871C140.493 145.077 141.104 145.216 141.684 145.447L142.006 142.095C141.617 141.918 141.21 141.786 140.793 141.7C140.592 141.661 140.389 141.631 140.185 141.613ZM162.086 141.855L162.08 141.881L161.713 144.382C162.34 144.326 162.971 144.349 163.593 144.45C164.204 144.55 164.801 144.721 165.376 144.952C165.384 144.955 165.392 144.958 165.399 144.961L165.773 142.62C165.19 142.354 164.579 142.153 163.952 142.02C163.34 141.883 162.712 141.827 162.086 141.855ZM38.8691 141.849C38.2514 141.828 37.6333 141.884 37.0293 142.016C36.395 142.149 35.7786 142.357 35.1934 142.635L35.5645 144.947C36.1482 144.708 36.7578 144.536 37.3809 144.436C37.9978 144.334 38.6252 144.31 39.248 144.365L39.1826 143.902L38.874 141.883L38.8691 141.884V141.849ZM80.75 144.043C81.3414 144.023 81.9312 144.101 82.4961 144.273C82.4961 144.345 82.497 144.415 82.4971 144.483C81.9389 144.306 81.3545 144.225 80.7686 144.245C80.5873 144.251 80.4066 144.265 80.2275 144.29C80.2695 144.221 80.3091 144.15 80.3457 144.077C80.4798 144.061 80.6147 144.048 80.75 144.043ZM102.556 144.056C102.677 144.011 102.8 143.972 102.924 143.935C102.693 144.082 102.503 144.252 102.345 144.453V144.277C101.537 143.958 100.668 143.854 99.8203 143.964C99.8203 143.897 99.8203 143.832 99.8203 143.768C100.208 143.72 100.6 143.714 100.988 143.753C100.996 143.753 101.005 143.755 101.013 143.756C101.087 143.763 101.161 143.772 101.235 143.783C101.255 143.786 101.274 143.789 101.294 143.792C101.352 143.801 101.409 143.811 101.467 143.822C101.501 143.829 101.535 143.836 101.569 143.843C101.611 143.852 101.653 143.861 101.695 143.871C101.754 143.885 101.811 143.9 101.869 143.916C101.879 143.919 101.889 143.921 101.899 143.924C101.968 143.943 102.036 143.963 102.104 143.985C102.111 143.988 102.118 143.99 102.126 143.993C102.2 144.017 102.273 144.043 102.346 144.07L102.356 142.206H102.565L102.556 144.056ZM42.7598 141.093C42.1327 141.048 41.502 141.09 40.8867 141.219C40.5093 141.291 40.139 141.393 39.7764 141.518C39.5366 141.605 39.3007 141.703 39.0703 141.813V141.852L39.4355 144.364C40.0187 144.119 40.6308 143.948 41.2568 143.855C41.7892 143.778 42.3283 143.764 42.8633 143.81C42.8981 143.813 42.9329 143.817 42.9678 143.82C42.9867 143.822 43.0055 143.824 43.0244 143.826C43.0594 143.829 43.0949 143.833 43.1299 143.837L42.7598 141.093ZM160.076 141.206C159.485 141.081 158.881 141.037 158.278 141.075C158.253 141.077 158.228 141.078 158.203 141.08L157.834 143.818C158.101 143.786 158.371 143.771 158.64 143.771C159.001 143.772 159.363 143.8 159.721 143.851C159.774 143.86 159.827 143.871 159.88 143.881C159.916 143.887 159.953 143.893 159.989 143.9C160.512 144 161.025 144.149 161.518 144.352L161.886 141.847H161.873V141.787C161.301 141.52 160.697 141.325 160.076 141.206ZM156.139 140.457C155.581 140.349 155.011 140.316 154.444 140.357C154.399 140.361 154.354 140.365 154.31 140.37L153.938 143.284C154.242 143.239 154.55 143.218 154.857 143.219C155.169 143.221 155.48 143.244 155.788 143.289C156.368 143.372 156.935 143.524 157.479 143.74C157.505 143.75 157.531 143.761 157.558 143.771C157.573 143.778 157.589 143.783 157.604 143.79L157.974 141.047C157.391 140.769 156.774 140.571 156.139 140.457ZM46.6562 140.38C46.0309 140.316 45.3993 140.345 44.7822 140.467C44.1545 140.581 43.5441 140.775 42.9658 141.045V141.073L43.3301 143.789C43.5419 143.7 43.7576 143.62 43.9766 143.551C43.9947 143.546 44.013 143.54 44.0312 143.535C44.0793 143.52 44.1274 143.506 44.1758 143.492C44.2193 143.48 44.2629 143.467 44.3066 143.456C44.3412 143.447 44.3755 143.437 44.4102 143.428C44.6514 143.368 44.896 143.321 45.1426 143.285C45.261 143.268 45.3801 143.254 45.499 143.244C46.0031 143.196 46.5112 143.205 47.0137 143.271L46.6562 140.38ZM67.0068 143.456C66.9354 143.474 66.8662 143.494 66.7988 143.513L66.6973 142.206H66.9102L67.0068 143.456ZM50.5439 139.751C49.9226 139.674 49.2931 139.69 48.6768 139.801C48.0445 139.906 47.4298 140.097 46.8496 140.369L47.209 143.255C47.7893 143.01 48.3994 142.844 49.0234 142.76C49.6456 142.677 50.2771 142.687 50.8965 142.789L50.5439 139.751ZM152.272 139.778C151.655 139.665 151.024 139.65 150.401 139.73L150.384 139.883L150.048 142.784C150.15 142.768 150.253 142.756 150.355 142.745C150.869 142.685 151.389 142.688 151.902 142.756C151.919 142.757 151.936 142.758 151.953 142.76C152.28 142.803 152.603 142.87 152.92 142.959C152.926 142.961 152.933 142.963 152.939 142.965C153.004 142.983 153.068 143.002 153.132 143.022C153.181 143.038 153.23 143.054 153.278 143.07C153.295 143.076 153.311 143.081 153.327 143.087C153.465 143.135 153.601 143.188 153.736 143.245L154.098 140.345C153.517 140.076 152.904 139.885 152.272 139.778ZM106.521 143.127C106.454 143.132 106.389 143.137 106.327 143.142L106.372 140.089C106.432 140.079 106.497 140.071 106.567 140.062L106.521 143.127ZM74.6729 139.961L74.7129 140.612C75.1552 140.422 75.6197 140.29 76.0947 140.218C76.1968 140.202 76.2994 140.189 76.4023 140.178C76.4938 140.224 76.5675 140.281 76.627 140.352C76.6169 140.353 76.6067 140.354 76.5967 140.354C76.5817 140.355 76.5667 140.356 76.5518 140.357C75.9269 140.399 75.3094 140.551 74.7285 140.811L74.8408 142.69C74.7801 142.696 74.7177 142.701 74.6533 142.707L74.5459 140.907L74.542 140.911L74.5361 140.816C74.3261 140.754 74.1129 140.704 73.8975 140.668C73.4862 140.6 73.0676 140.58 72.6504 140.611C72.0029 140.654 71.3676 140.81 70.7744 141.073L70.7773 141.121L70.9082 143.008C70.8439 143.013 70.7807 143.017 70.7188 143.022L70.584 141.077C69.8816 140.888 69.1545 140.841 68.4434 140.932C68.4525 140.858 68.4638 140.791 68.4766 140.729C68.546 140.721 68.6157 140.715 68.6855 140.71C69.175 140.671 69.6668 140.697 70.1484 140.786C70.2907 140.811 70.432 140.842 70.5723 140.878L70.5098 139.986C70.5707 139.984 70.6335 139.98 70.6982 139.978L70.7607 140.873C71.354 140.613 71.9872 140.455 72.6328 140.405C73.2692 140.362 73.908 140.429 74.5225 140.599L74.4834 139.956C74.5492 139.957 74.6122 139.96 74.6729 139.961ZM111.178 139.953C110.979 140 110.782 140.059 110.589 140.13L110.523 142.806C110.446 142.813 110.37 142.819 110.294 142.825L110.36 140.123C110.203 140.057 110.042 139.999 109.88 139.95C109.969 139.95 110.061 139.95 110.154 139.95C110.544 139.95 110.883 139.951 111.178 139.953ZM54.4912 139.149C53.8689 139.053 53.2347 139.056 52.6133 139.16C51.9736 139.259 51.3519 139.45 50.7666 139.725L51.1123 142.768C51.6982 142.516 52.3177 142.349 52.9512 142.273C53.5748 142.199 54.2067 142.219 54.8242 142.334L54.4912 139.149ZM148.354 139.118C147.735 139.011 147.103 139.006 146.482 139.103L146.127 142.319C146.466 142.261 146.81 142.232 147.154 142.231C147.448 142.225 147.742 142.238 148.035 142.273C148.07 142.277 148.104 142.282 148.139 142.287C148.727 142.362 149.304 142.514 149.853 142.741L150.199 139.691V139.677C149.615 139.402 148.993 139.213 148.354 139.118ZM35.7139 142.179C35.5081 142.207 35.2927 142.241 35.2129 142.343C35.1999 142.36 35.1901 142.38 35.1846 142.4C35.3531 142.316 35.5313 142.25 35.7139 142.179ZM165.268 142.179C165.45 142.245 165.623 142.32 165.792 142.395C165.787 142.376 165.777 142.358 165.764 142.343C165.67 142.236 165.455 142.203 165.268 142.179ZM58.4375 138.587C57.8146 138.475 57.1773 138.468 56.5518 138.566C55.906 138.655 55.2779 138.842 54.6895 139.122L55.0273 142.313C55.6131 142.058 56.2349 141.894 56.8701 141.824C57.4949 141.755 58.1268 141.784 58.7422 141.913L58.4473 138.672L58.4375 138.587ZM144.426 138.523C143.796 138.426 143.154 138.435 142.527 138.549L142.206 141.895C142.611 141.819 143.022 141.783 143.434 141.791C143.659 141.79 143.884 141.801 144.108 141.824C144.738 141.888 145.355 142.046 145.938 142.292L146.274 139.118H146.271V139.073C145.687 138.798 145.065 138.612 144.426 138.523ZM62.3867 138.059C61.7709 137.935 61.1382 137.916 60.5156 138C59.8634 138.074 59.2264 138.25 58.6299 138.524V138.577L58.9492 141.897C59.4419 141.688 59.9596 141.546 60.4883 141.47C60.5144 141.467 60.5403 141.461 60.5664 141.458C60.5768 141.456 60.5872 141.455 60.5977 141.454C60.6638 141.445 60.7304 141.437 60.7969 141.43C61.4301 141.365 62.0693 141.405 62.6895 141.547L62.3867 138.059ZM140.48 137.98C139.847 137.892 139.203 137.913 138.577 138.042L138.584 138.102L138.572 138.096L138.274 141.516C138.705 141.421 139.145 141.376 139.586 141.38C139.783 141.38 139.984 141.379 140.181 141.412C140.813 141.469 141.433 141.627 142.016 141.88L142.338 138.561H142.334V138.516C141.748 138.242 141.123 138.06 140.48 137.98ZM38.209 141.51L37.4277 141.73C37.5226 141.715 37.6176 141.701 37.7129 141.69C38.0928 141.641 38.4763 141.625 38.8594 141.641C38.8562 141.566 38.8739 141.491 38.9102 141.426C38.9465 141.36 39.0002 141.305 39.0654 141.267L38.209 141.51ZM161.925 141.272C162.038 141.349 162.117 141.463 162.119 141.639C162.594 141.621 163.069 141.65 163.537 141.724L162.781 141.515L161.925 141.272ZM43.1104 140.176C42.4463 140.351 41.7373 140.546 41.0801 140.739L41.083 140.748L39.9316 141.216C39.8241 141.256 39.7121 141.286 39.5986 141.304C39.3062 141.362 39.1082 141.414 39.0723 141.597C39.0909 141.589 39.1103 141.582 39.1289 141.574C39.2366 141.525 39.3454 141.479 39.4551 141.435C39.4697 141.43 39.4844 141.424 39.499 141.419C39.9451 141.244 40.4066 141.109 40.8779 141.018C41.4854 140.89 42.1074 140.846 42.7266 140.886C42.7312 140.578 42.9363 140.445 43.1523 140.364C43.2324 140.331 43.3154 140.307 43.3916 140.284C43.4824 140.262 43.571 140.23 43.6562 140.192L44.127 139.932C43.8227 139.998 43.4895 140.083 43.1104 140.176ZM157.296 140.181C157.383 140.221 157.474 140.252 157.567 140.274C157.839 140.354 158.199 140.457 158.199 140.879C158.368 140.874 158.522 140.869 158.677 140.869C159.158 140.873 159.638 140.923 160.109 141.019C160.714 141.138 161.303 141.325 161.865 141.575C161.82 141.402 161.629 141.351 161.345 141.295C161.231 141.276 161.119 141.246 161.012 141.206L159.865 140.738L159.868 140.727C159.244 140.547 158.519 140.346 157.853 140.172C157.469 140.073 157.127 139.994 156.827 139.928L157.296 140.181ZM48.1016 138.992C47.7364 139.053 47.3242 139.136 46.8467 139.249C46.2615 139.389 45.5876 139.572 44.7871 139.806L43.7383 140.354C43.6395 140.402 43.5361 140.44 43.4297 140.467C43.2217 140.524 43.069 140.578 42.9902 140.691C42.9671 140.731 42.9539 140.778 42.9531 140.837C43.5306 140.573 44.1388 140.382 44.7637 140.269C44.8413 140.254 44.9191 140.24 44.9971 140.228C45.0269 140.224 45.057 140.221 45.0869 140.217C45.1422 140.209 45.1975 140.201 45.2529 140.194C45.2559 140.194 45.2588 140.193 45.2617 140.193C45.7177 140.14 46.1787 140.134 46.6367 140.176C46.6367 139.736 46.9687 139.61 47.2168 139.516C47.3036 139.487 47.3868 139.447 47.4648 139.399L48.1016 138.992ZM153.49 139.399C153.568 139.447 153.652 139.487 153.738 139.516C153.984 139.61 154.309 139.734 154.315 140.154C154.946 140.095 155.582 140.127 156.204 140.247C156.83 140.36 157.439 140.552 158.017 140.819C157.984 140.607 157.801 140.543 157.524 140.467C157.418 140.438 157.315 140.401 157.216 140.354L156.158 139.806C155.348 139.568 154.702 139.394 154.117 139.254C153.655 139.138 153.233 139.055 152.866 138.994L153.49 139.399ZM51.9346 138.178C51.4657 138.234 51.0001 138.315 50.54 138.421C49.9933 138.518 49.3317 138.693 48.5693 138.919L48.541 138.937V138.94L47.5723 139.572C47.4821 139.626 47.3858 139.671 47.2861 139.704C47.1461 139.76 47.0208 139.81 46.9346 139.897C46.881 139.958 46.8454 140.034 46.8369 140.142C47.4192 139.874 48.0351 139.683 48.668 139.577C49.2831 139.466 49.9111 139.448 50.5312 139.522C50.5331 139.37 50.5815 139.223 50.6719 139.1C50.7155 139.041 50.7688 138.991 50.8271 138.948C50.9046 138.883 50.9934 138.833 51.0918 138.804C51.1736 138.769 51.2509 138.723 51.3213 138.669L51.9346 138.178ZM149.65 138.65C149.722 138.701 149.799 138.745 149.88 138.781C150.056 138.83 150.207 138.944 150.303 139.099C150.385 139.231 150.418 139.385 150.406 139.539C150.491 139.529 150.576 139.521 150.661 139.514C150.823 139.495 150.986 139.48 151.149 139.474V139.494C151.541 139.491 151.932 139.523 152.318 139.591C152.937 139.697 153.54 139.883 154.112 140.142C154.11 140.066 154.093 140.006 154.066 139.956C153.984 139.843 153.833 139.785 153.663 139.722C153.562 139.688 153.465 139.644 153.373 139.591L152.403 138.954C151.636 138.729 150.971 138.552 150.377 138.421C149.95 138.324 149.518 138.248 149.083 138.192L149.65 138.65ZM99.5889 139.531C100.247 139.423 100.92 139.437 101.574 139.575C101.562 139.64 101.552 139.707 101.542 139.776C100.914 139.648 100.268 139.637 99.6367 139.744C99.6221 139.672 99.6071 139.601 99.5889 139.531ZM55.7734 137.39C55.2813 137.433 54.7923 137.506 54.3086 137.606C53.7415 137.708 53.0877 137.876 52.3525 138.092L52.3232 138.116L51.4248 138.838C51.3432 138.901 51.2535 138.952 51.1582 138.992C50.9505 139.094 50.7648 139.186 50.7393 139.458C50.7388 139.464 50.7376 139.471 50.7373 139.478C50.7372 139.48 50.7364 139.481 50.7363 139.483C51.3224 139.214 51.9435 139.028 52.5811 138.93C52.6548 138.919 52.7287 138.909 52.8027 138.9C53.3508 138.83 53.9057 138.833 54.4531 138.909C54.4501 138.757 54.4906 138.607 54.5703 138.477C54.6538 138.341 54.7763 138.233 54.9219 138.168C54.9969 138.125 55.0669 138.074 55.1318 138.017L55.7734 137.39ZM145.779 137.971C145.844 138.028 145.915 138.078 145.99 138.121C146.158 138.192 146.296 138.319 146.381 138.48C146.412 138.54 146.433 138.604 146.448 138.669C146.449 138.673 146.45 138.676 146.451 138.68C146.458 138.71 146.463 138.74 146.466 138.77C146.468 138.792 146.47 138.813 146.471 138.835C146.471 138.851 146.471 138.867 146.471 138.884C146.47 138.893 146.472 138.902 146.472 138.912C146.761 138.868 147.055 138.847 147.348 138.846V138.833C147.696 138.834 148.043 138.862 148.387 138.917C149.013 139.014 149.624 139.196 150.201 139.458C150.181 139.168 149.995 139.077 149.782 138.968C149.688 138.93 149.599 138.878 149.52 138.814L148.631 138.102L148.623 138.096C147.887 137.879 147.234 137.713 146.631 137.588C146.147 137.486 145.656 137.414 145.163 137.373L145.779 137.971ZM59.665 136.651C59.1526 136.674 58.6421 136.735 58.1387 136.834C57.4701 136.963 56.8091 137.129 56.1592 137.332L56.1338 137.358L55.3096 138.153C55.2356 138.222 55.1542 138.282 55.0664 138.332C54.9296 138.385 54.8165 138.486 54.7471 138.615C54.7036 138.696 54.6804 138.785 54.6758 138.876C55.0825 138.689 55.5073 138.546 55.9424 138.446C56.1341 138.401 56.328 138.364 56.5234 138.336C56.6144 138.322 56.7056 138.312 56.7969 138.302C57.3392 138.241 57.8876 138.251 58.4277 138.334C58.4245 138.215 58.4463 138.098 58.4893 137.987C58.4919 137.979 58.4952 137.972 58.498 137.965C58.5011 137.957 58.5026 137.949 58.5059 137.942C58.5089 137.935 58.5125 137.929 58.5156 137.923C58.5234 137.905 58.5301 137.887 58.5391 137.87C58.6144 137.727 58.7293 137.607 58.8691 137.526C58.9373 137.479 58.9999 137.424 59.0557 137.363L59.665 136.651ZM141.903 137.325C141.959 137.387 142.022 137.442 142.091 137.489C142.215 137.561 142.317 137.663 142.393 137.784C142.416 137.817 142.437 137.851 142.456 137.887C142.531 138.031 142.565 138.193 142.554 138.355C142.875 138.299 143.201 138.27 143.527 138.27C143.841 138.271 144.154 138.294 144.464 138.337C145.092 138.426 145.704 138.603 146.282 138.863C146.282 138.762 146.26 138.661 146.212 138.571C146.161 138.476 146.087 138.397 145.997 138.34C145.972 138.326 145.947 138.314 145.92 138.303C145.902 138.293 145.885 138.281 145.868 138.27C145.79 138.224 145.716 138.172 145.647 138.112C145.411 137.876 145.171 137.656 144.857 137.34C144.203 137.142 143.539 136.977 142.867 136.847C142.361 136.751 141.849 136.69 141.335 136.665L141.903 137.325ZM138.041 136.824C138.091 136.89 138.15 136.95 138.215 137.002C138.345 137.1 138.447 137.231 138.514 137.38C138.58 137.528 138.607 137.692 138.594 137.854C138.954 137.781 139.322 137.743 139.689 137.742C139.963 137.743 140.237 137.761 140.509 137.794C141.145 137.875 141.765 138.052 142.348 138.32C142.353 138.208 142.333 138.097 142.286 137.994C142.274 137.967 142.258 137.942 142.243 137.917C142.182 137.823 142.1 137.744 142.002 137.69C141.922 137.634 141.848 137.57 141.781 137.499C141.561 137.241 141.346 136.983 141.056 136.651C140.402 136.456 139.738 136.3 139.066 136.183C138.543 136.089 138.012 136.04 137.479 136.038C137.699 136.342 137.873 136.581 138.041 136.824ZM63.4873 136.028C62.9653 136.033 62.4446 136.082 61.9307 136.174C61.26 136.29 60.5965 136.446 59.9443 136.64L59.9404 136.646L59.1963 137.517C59.1299 137.589 59.0562 137.653 58.9766 137.709C58.8445 137.782 58.7392 137.896 58.6768 138.033C58.6358 138.123 58.6168 138.221 58.6162 138.319C59.2089 138.052 59.8385 137.876 60.4834 137.794C61.112 137.707 61.7508 137.723 62.374 137.843C62.3651 137.701 62.3861 137.559 62.4365 137.426C62.4428 137.409 62.4518 137.393 62.459 137.377C62.4602 137.374 62.4607 137.371 62.4619 137.368C62.4639 137.363 62.4667 137.359 62.4688 137.354C62.5358 137.211 62.6345 137.085 62.7598 136.988C62.8243 136.936 62.8823 136.876 62.9326 136.81C63.1015 136.569 63.273 136.331 63.4873 136.028ZM67.3281 135.448C66.7877 135.436 66.2469 135.471 65.7129 135.555C65.0405 135.667 64.376 135.822 63.7236 136.019V136.014L63.5146 136.304C63.3517 136.532 63.2098 136.728 63.0723 136.927C63.0124 137.003 62.945 137.072 62.8711 137.134C62.8421 137.155 62.8147 137.179 62.7891 137.204C62.723 137.27 62.6683 137.347 62.6289 137.432C62.5735 137.552 62.5488 137.685 62.5576 137.817C63.1508 137.547 63.7832 137.371 64.4307 137.297C65.0653 137.218 65.7087 137.247 66.334 137.381C66.3319 137.353 66.333 137.325 66.333 137.297C66.3303 137.162 66.3508 137.027 66.3984 136.9C66.439 136.792 66.498 136.692 66.5703 136.603C66.6033 136.561 66.6387 136.52 66.6777 136.482C66.7337 136.424 66.7833 136.36 66.8262 136.292C66.9825 136.034 67.1348 135.775 67.3281 135.448ZM127.597 134.497C127.033 134.428 126.463 134.418 125.896 134.465C126.056 134.839 126.173 135.134 126.295 135.433C126.329 135.506 126.369 135.577 126.412 135.644C126.563 135.867 126.646 136.126 126.658 136.391C126.665 136.453 126.666 136.516 126.665 136.579C127.006 136.504 127.353 136.46 127.702 136.449H128.579C129.225 136.502 129.858 136.661 130.452 136.918C130.464 136.777 130.449 136.636 130.406 136.502C130.364 136.368 130.295 136.243 130.204 136.135C130.144 136.065 130.091 135.988 130.049 135.906C129.899 135.602 129.75 135.298 129.549 134.905C128.911 134.715 128.257 134.578 127.597 134.497ZM78.8906 134.119C78.3196 134.058 77.7439 134.058 77.1729 134.119C76.5259 134.188 75.8859 134.314 75.2607 134.494L74.832 135.537C74.796 135.622 74.7523 135.703 74.7012 135.78C74.5401 136.022 74.4625 136.31 74.4785 136.598C75.0685 136.342 75.6974 136.186 76.3389 136.136C76.981 136.086 77.6273 136.146 78.249 136.314C78.2243 135.981 78.2958 135.648 78.4551 135.354C78.4934 135.282 78.5266 135.207 78.5537 135.13L78.8906 134.119ZM123.781 134.109C123.206 134.046 122.624 134.046 122.049 134.109L122.386 135.125C122.414 135.204 122.452 135.274 122.484 135.349C122.644 135.643 122.715 135.976 122.69 136.309C123.166 136.181 123.657 136.118 124.15 136.122H124.619C125.258 136.174 125.884 136.329 126.473 136.582C126.483 136.299 126.406 136.018 126.248 135.78C126.198 135.704 126.154 135.624 126.117 135.541C125.988 135.218 125.853 134.899 125.679 134.477C125.059 134.298 124.424 134.174 123.781 134.109ZM82.7998 133.786C82.2211 133.708 81.6355 133.694 81.0537 133.744C80.4024 133.81 79.7585 133.936 79.1299 134.119H79.1162L78.7598 135.19C78.7294 135.275 78.6935 135.358 78.6523 135.438C78.5109 135.704 78.4459 136.004 78.4648 136.304C79.067 136.041 79.7098 135.883 80.3652 135.837C81.0099 135.791 81.6581 135.86 82.2783 136.042C82.2762 135.985 82.2771 135.928 82.2793 135.871C82.2845 135.596 82.3388 135.324 82.4443 135.069C82.4758 134.993 82.5019 134.914 82.5234 134.835L82.7998 133.786ZM119.9 133.749C119.318 133.698 118.732 133.709 118.152 133.785L118.435 134.848C118.457 134.929 118.483 135.01 118.514 135.088C118.639 135.39 118.697 135.716 118.684 136.043C119.186 135.902 119.706 135.834 120.228 135.842H120.607C121.252 135.882 121.885 136.032 122.479 136.286C122.499 135.987 122.434 135.689 122.292 135.425C122.251 135.344 122.215 135.261 122.185 135.176L121.829 134.104C121.2 133.922 120.553 133.803 119.9 133.749ZM84.9209 133.468C84.2704 133.516 83.626 133.628 82.9971 133.801C82.8801 134.236 82.7903 134.568 82.7061 134.9C82.678 134.994 82.65 135.074 82.6172 135.158C82.5017 135.441 82.4509 135.746 82.4678 136.051C83.0728 135.797 83.7176 135.65 84.373 135.617C85.0218 135.582 85.6716 135.662 86.292 135.855C86.2911 135.839 86.2926 135.822 86.292 135.805C86.2914 135.76 86.2896 135.714 86.291 135.669C86.2944 135.399 86.334 135.13 86.4141 134.872C86.4374 134.792 86.4608 134.717 86.4795 134.629L86.6953 133.548C86.1088 133.454 85.5134 133.427 84.9209 133.468ZM116.033 133.463C115.446 133.419 114.855 133.443 114.273 133.534L114.484 134.605C114.484 134.694 114.526 134.769 114.55 134.848C114.647 135.171 114.687 135.507 114.675 135.843C114.705 135.833 114.735 135.826 114.766 135.817C114.789 135.81 114.813 135.804 114.836 135.798C114.851 135.794 114.866 135.789 114.881 135.785C115.441 135.632 116.024 135.57 116.605 135.602C117.248 135.628 117.881 135.766 118.477 136.009C118.485 135.793 118.461 135.578 118.403 135.371C118.384 135.305 118.363 135.24 118.337 135.176C118.304 135.092 118.275 135.012 118.247 134.919C118.244 134.909 118.24 134.901 118.237 134.891L117.947 133.791C117.322 133.616 116.681 133.506 116.033 133.463ZM88.7969 133.257C88.1542 133.287 87.5163 133.383 86.8936 133.545L86.6719 134.666C86.6719 134.759 86.6299 134.839 86.6064 134.924C86.5138 135.224 86.474 135.538 86.4844 135.852C87.701 135.351 89.0565 135.3 90.3086 135.706C90.2975 135.373 90.3261 135.039 90.3975 134.713C90.3976 134.633 90.4301 134.558 90.4395 134.465L90.5938 133.368C90.0012 133.261 89.3981 133.225 88.7969 133.257ZM112.186 133.219C111.581 133.19 110.975 133.227 110.379 133.332L110.533 134.441C110.533 134.535 110.561 134.61 110.575 134.689C110.646 135.015 110.676 135.349 110.664 135.682C111.146 135.529 111.648 135.446 112.152 135.434H112.598C113.244 135.454 113.883 135.589 114.482 135.832C114.49 135.523 114.452 135.215 114.361 134.919C114.338 134.839 114.315 134.755 114.296 134.662L114.066 133.514C113.451 133.354 112.821 133.254 112.186 133.219ZM92.6826 133.075C92.043 133.099 91.4073 133.192 90.7881 133.354L90.6318 134.483C90.6318 134.577 90.6037 134.662 90.585 134.746C90.5183 135.054 90.4916 135.368 90.501 135.682C91.1087 135.439 91.7557 135.31 92.4102 135.299C93.0623 135.277 93.7134 135.375 94.3301 135.589C94.3213 135.257 94.3389 134.925 94.3818 134.596C94.3818 134.517 94.3812 134.437 94.4092 134.343L94.5029 133.219C93.9039 133.1 93.293 133.052 92.6826 133.075ZM108.305 133.079C107.694 133.056 107.081 133.103 106.481 133.22L106.572 134.343C106.572 134.436 106.573 134.516 106.601 134.595C106.642 134.926 106.658 135.26 106.653 135.593C107.219 135.397 107.813 135.295 108.412 135.293H108.562C109.214 135.307 109.859 135.437 110.467 135.676C110.477 135.362 110.449 135.048 110.383 134.741C110.383 134.661 110.35 134.577 110.336 134.483L110.177 133.35C109.565 133.192 108.937 133.101 108.305 133.079ZM96.5586 132.985C95.9305 132.998 95.3056 133.08 94.6953 133.229L94.6016 134.371C94.6016 134.464 94.6013 134.549 94.5732 134.634C94.5301 134.953 94.5136 135.275 94.5225 135.597C95.1358 135.358 95.7879 135.233 96.4463 135.228C97.101 135.22 97.752 135.326 98.3701 135.542V134.301L98.4033 133.164C97.7971 133.036 97.1781 132.975 96.5586 132.985ZM104.396 132.985C103.767 132.971 103.138 133.031 102.523 133.163L102.556 134.305V135.546C103.165 135.329 103.809 135.221 104.456 135.227H104.526C105.18 135.233 105.828 135.356 106.438 135.591C106.442 135.271 106.426 134.95 106.385 134.633C106.385 134.548 106.384 134.464 106.356 134.371L106.265 133.223C105.652 133.077 105.025 132.996 104.396 132.985ZM102.372 133.162C101.137 132.881 99.8537 132.881 98.6182 133.163L98.5859 134.301V135.545C99.8197 135.096 101.171 135.094 102.406 135.538V134.301L102.372 133.162Z" fill="white"/>
<path d="M91.1689 136.552C93.6716 136.552 95.7061 136.634 96.7725 136.804L96.7715 136.805C97.6434 136.928 98.3796 137.246 98.9375 137.755C99.4981 138.266 99.8581 138.949 100.005 139.762L100.056 140.062C100.161 140.735 100.176 141.327 100.176 143.965C100.176 146.62 100.161 147.216 100.056 147.888L100.005 148.188C99.8581 149.001 99.4981 149.685 98.9375 150.196C98.3798 150.704 97.6439 151.023 96.7725 151.145L96.7734 151.146C95.7268 151.317 93.6707 151.399 91.1689 151.399C88.6466 151.399 86.5905 151.317 85.5439 151.146V151.145C84.673 151.023 83.9373 150.704 83.3799 150.196C82.8207 149.686 82.4609 149.005 82.3135 148.194C82.1395 147.324 82.1416 147.053 82.1416 143.779C82.1416 140.993 82.1607 140.585 82.3125 139.761C82.4594 138.949 82.8196 138.266 83.3799 137.755C83.9375 137.246 84.6736 136.928 85.5449 136.805C86.6113 136.635 88.6458 136.552 91.1689 136.552ZM136.097 136.718V140.387H125.807C125.257 140.387 124.781 140.367 124.423 140.333V141.419C124.423 141.519 124.42 141.608 124.42 141.688C124.46 141.662 124.5 141.637 124.54 141.614C124.777 141.48 125.004 141.409 125.285 141.344C125.996 141.166 127.59 141.064 129.408 141.064C130.871 141.064 132.056 141.11 133.009 141.243C133.959 141.375 134.708 141.597 135.278 141.968C136.46 142.737 136.738 144.05 136.738 145.952C136.738 147.332 136.605 148.38 136.262 149.168C135.909 149.978 135.344 150.492 134.551 150.814L134.548 150.815C133.38 151.278 132.219 151.399 129.077 151.399C124.881 151.399 123.414 151.317 121.982 150.997H121.979C121.124 150.797 120.475 150.426 120.056 149.767C119.647 149.126 119.49 148.262 119.49 147.152C119.49 147.069 119.49 146.827 119.513 146.582L119.542 146.26H124.203L124.216 146.601C124.226 146.886 124.246 147.068 124.275 147.189C124.289 147.246 124.304 147.282 124.316 147.304L124.343 147.341L124.352 147.348C124.371 147.366 124.43 147.407 124.581 147.45C124.729 147.492 124.939 147.529 125.232 147.559C125.818 147.619 126.687 147.646 127.959 147.646C129.473 147.646 130.316 147.641 130.832 147.613C131.333 147.586 131.488 147.539 131.637 147.472C131.725 147.43 131.797 147.366 131.854 147.176C131.918 146.96 131.95 146.621 131.95 146.076C131.95 145.559 131.899 145.305 131.819 145.168C131.762 145.069 131.665 144.988 131.373 144.935L131.366 144.934C131.086 144.878 130.471 144.827 129.679 144.791C128.896 144.755 127.965 144.734 127.069 144.734C125.836 144.734 125.14 144.779 124.754 144.893C124.57 144.948 124.502 145.006 124.475 145.042C124.45 145.074 124.423 145.132 124.423 145.269V145.79H120.028V136.718H136.097ZM72.2051 136.552C75.0755 136.552 76.704 136.567 77.7275 136.659C78.2425 136.705 78.622 136.773 78.9385 136.874C79.2588 136.976 79.5009 137.11 79.7451 137.27C80.2786 137.614 80.636 138.058 80.8506 138.714C81.0579 139.347 81.1289 140.171 81.1289 141.274C81.1289 142.923 80.9654 143.82 80.4707 144.574L80.4688 144.578C79.7633 145.624 78.3108 146.077 75.9736 146.202L75.9746 146.203C73.0755 146.389 71.4279 146.498 70.4717 146.575C69.9926 146.614 69.6945 146.644 69.502 146.672C69.3046 146.7 69.2466 146.722 69.2285 146.73L69.2197 146.734L69.2119 146.737C68.9914 146.825 68.9073 146.904 68.8594 146.987C68.817 147.06 68.784 147.169 68.7656 147.356H81.3574V151.233H64.2227L64.1934 150.91C64.1299 150.212 64.1299 149.972 64.1299 149.305C64.1299 147.024 64.2079 145.902 64.46 145.191C64.6998 144.486 65.0788 143.963 65.707 143.588C66.3167 143.224 67.1368 143.014 68.2246 142.868L68.2285 142.867C68.4051 142.845 70.3896 142.699 74.1836 142.389H74.1855C74.7969 142.343 75.2548 142.302 75.6016 142.251C75.9543 142.199 76.1562 142.14 76.2754 142.076C76.3716 142.024 76.4098 141.973 76.4365 141.891C76.4724 141.782 76.4863 141.619 76.4863 141.337C76.4863 140.938 76.4466 140.741 76.3896 140.633C76.3499 140.557 76.2856 140.493 76.083 140.436L76.0752 140.434L76.0664 140.431C75.9283 140.385 75.7353 140.351 75.2832 140.331C74.8321 140.311 74.1523 140.304 73.0537 140.304C71.7195 140.304 70.7868 140.32 70.1357 140.358C69.4697 140.397 69.1453 140.459 68.9922 140.524L68.9814 140.529L68.9707 140.533C68.9351 140.546 68.9191 140.559 68.9072 140.573C68.8919 140.591 68.8665 140.631 68.8418 140.719C68.7887 140.906 68.7624 141.215 68.752 141.737V142.561H63.9844V141.605C63.9844 140.557 64.0382 139.696 64.2451 139.006C64.4578 138.296 64.8347 137.761 65.4668 137.384C66.0795 137.018 66.9062 136.815 67.9873 136.7C69.0731 136.584 70.4556 136.552 72.2051 136.552ZM109.306 136.552C112.176 136.552 113.804 136.567 114.827 136.659C115.342 136.705 115.722 136.773 116.038 136.874C116.359 136.976 116.601 137.109 116.846 137.27L117.037 137.404C117.466 137.728 117.763 138.14 117.951 138.714C118.158 139.347 118.229 140.171 118.229 141.274C118.229 142.923 118.066 143.82 117.571 144.574L117.568 144.578C116.863 145.624 115.411 146.078 113.073 146.202L113.074 146.203C110.175 146.389 108.528 146.498 107.572 146.575C107.093 146.614 106.795 146.644 106.603 146.672C106.406 146.7 106.347 146.722 106.329 146.73L106.32 146.734L106.312 146.737C106.091 146.825 106.008 146.904 105.96 146.987C105.918 147.06 105.885 147.169 105.866 147.356H118.457V151.233H101.322L101.293 150.91C101.23 150.212 101.229 149.972 101.229 149.305C101.229 147.024 101.308 145.902 101.561 145.191C101.8 144.486 102.179 143.963 102.808 143.588C103.417 143.224 104.237 143.014 105.325 142.868L105.329 142.867C105.508 142.845 107.492 142.699 111.284 142.389H111.286C111.898 142.343 112.355 142.302 112.702 142.251C113.055 142.199 113.256 142.14 113.375 142.076C113.472 142.024 113.51 141.973 113.537 141.891C113.573 141.782 113.587 141.619 113.587 141.337C113.587 140.938 113.547 140.741 113.49 140.633C113.45 140.557 113.386 140.493 113.184 140.436L113.175 140.434L113.167 140.431C113.029 140.385 112.836 140.351 112.384 140.331C111.933 140.311 111.253 140.304 110.154 140.304C108.82 140.304 107.886 140.32 107.235 140.358C106.569 140.397 106.245 140.459 106.092 140.524L106.081 140.529L106.07 140.533C106.035 140.545 106.02 140.559 106.008 140.573C105.992 140.591 105.967 140.631 105.942 140.719C105.889 140.906 105.863 141.215 105.853 141.737V142.561H101.085V141.605C101.085 140.557 101.138 139.696 101.345 139.006C101.557 138.296 101.935 137.761 102.567 137.384C103.18 137.018 104.006 136.815 105.087 136.7C106.173 136.584 107.556 136.552 109.306 136.552ZM90.9004 140.844C89.8925 140.844 89.1479 140.853 88.5889 140.915C88.0252 140.977 87.7104 141.088 87.5176 141.245C87.3377 141.391 87.2136 141.618 87.1406 142.049C87.0663 142.487 87.0537 143.08 87.0537 143.903C87.0537 144.768 87.0631 145.392 87.1348 145.854C87.2056 146.311 87.3288 146.55 87.5059 146.701C87.6932 146.86 88.0016 146.974 88.5635 147.037C89.121 147.1 89.8662 147.108 90.8799 147.108C92.0543 147.108 92.9173 147.103 93.5615 147.046C94.2138 146.987 94.5754 146.878 94.792 146.718C94.9874 146.573 95.1141 146.347 95.1855 145.904C95.2589 145.449 95.2637 144.833 95.2637 143.965C95.2637 143.101 95.258 142.49 95.1836 142.039C95.1111 141.599 94.9829 141.375 94.7871 141.231C94.5701 141.071 94.2095 140.963 93.5615 140.905C92.9211 140.848 92.0645 140.844 90.9004 140.844Z" stroke="white" stroke-width="0.710572"/>
<path d="M137.531 172.197L139.605 170.694L141.552 169.29L143.392 167.951L145.138 166.659L146.828 165.428L148.471 164.234L150.087 163.064L151.697 161.893L153.312 160.723L154.955 159.529L156.645 158.298L158.405 157.025L160.245 155.686L162.193 154.281L164.267 152.778H36.6836L38.7575 154.281L40.7049 155.686L42.5447 157.025L44.305 158.298L45.995 159.529L47.6381 160.723L49.2532 161.893L50.8636 163.064L52.4787 164.234L54.1219 165.428L55.8119 166.659L57.5721 167.932L59.4119 169.271L61.3594 170.676L63.4333 172.178H137.531V172.197Z" fill="#DEFF1C"/>
<path d="M39.8057 153.354H161.139L158.985 154.979L156.977 156.491L155.105 157.895L153.307 159.253L151.575 160.559L149.885 161.832L148.209 163.096L146.519 164.37L144.791 165.676L142.994 167.034L141.121 168.438L139.118 169.95L136.964 171.574H64.0321L61.8786 169.95L59.875 168.438L58.0024 167.034L56.2047 165.676L54.4773 164.37L52.7873 163.096L51.1113 161.832L49.4026 160.573L47.6705 159.267L45.8915 157.914L44.0189 156.51L42.0106 154.998L39.8057 153.354ZM160.39 153.49H40.5547L42.6567 155.091L44.6182 156.58L46.4627 157.984L48.2135 159.319L49.9035 160.606L51.5514 161.861L53.1899 163.106L54.8377 164.36L56.5277 165.648L58.2786 166.982L60.1231 168.386L62.0799 169.875L64.1819 171.476H136.781L138.883 169.875L140.84 168.386L142.685 166.982L144.436 165.648L146.126 164.36L147.773 163.106L149.412 161.861L151.06 160.606L152.75 159.319L154.501 157.984L156.345 156.58L158.307 155.091L160.39 153.49Z" fill="#0A3F9F" stroke="#0A3F9F" stroke-width="0.122072" stroke-miterlimit="10"/>
<path d="M44.5898 156.949H45.6432C46.5795 156.949 47.5438 156.973 48.4988 157.015C49.4538 157.057 50.3995 157.127 51.3311 157.212C52.2627 157.296 53.1803 157.399 54.0697 157.521C54.9592 157.642 55.8159 157.783 56.6352 157.933C57.4544 158.082 58.2409 158.256 58.9759 158.438C59.7109 158.621 60.3803 158.817 61.0263 159.023C61.6724 159.229 62.2248 159.449 62.7351 159.679C63.1989 159.88 63.6465 160.116 64.0739 160.386C64.4163 160.597 64.7308 160.85 65.0102 161.139L66.2695 162.483L67.5242 163.826C67.7082 163.996 67.8564 164.2 67.9601 164.428C68.0639 164.655 68.121 164.901 68.1281 165.151C68.1075 165.374 68.0427 165.591 67.9374 165.789C67.8321 165.987 67.6884 166.161 67.5148 166.303C67.0374 166.705 66.4876 167.011 65.895 167.206C65.085 167.493 64.2471 167.694 63.3951 167.806C62.2871 167.953 61.1703 168.023 60.0526 168.016H59.2755L57.2016 166.453L55.329 165.048L53.5969 163.742L51.935 162.488L50.2731 161.233L48.541 159.927L46.6684 158.522L44.5898 156.949ZM59.8653 167.881C60.9503 167.888 62.0344 167.82 63.1096 167.675C63.9369 167.566 64.751 167.373 65.5392 167.099C66.1118 166.908 66.6425 166.609 67.1028 166.219C67.2721 166.085 67.4116 165.917 67.5123 165.726C67.6131 165.535 67.6729 165.325 67.688 165.109C67.6784 164.867 67.6209 164.629 67.5189 164.408C67.4168 164.188 67.2723 163.991 67.0935 163.826L65.8201 162.483L64.5468 161.139C64.2734 160.86 63.9669 160.614 63.6339 160.409C63.2173 160.15 62.7823 159.921 62.3325 159.726C61.8362 159.506 61.2838 159.295 60.6706 159.094C60.0573 158.892 59.3972 158.705 58.6903 158.527C57.9834 158.349 57.225 158.19 56.4292 158.059C55.6333 157.928 54.8094 157.773 53.9527 157.656C53.096 157.539 52.2112 157.441 51.3077 157.357C50.4042 157.272 49.4913 157.212 48.5737 157.169C47.6562 157.127 46.7339 157.104 45.8211 157.104H45.278L47.2817 158.63L49.0887 160.006L50.7646 161.28L52.3704 162.502L53.9761 163.723L55.6474 164.997L57.4544 166.373L59.4627 167.899L59.8653 167.881Z" fill="#0A3F9F" stroke="#0A3F9F" stroke-width="0.122072" stroke-miterlimit="10"/>
<path d="M155.32 156.95H156.374L154.3 158.513L152.427 159.918L150.695 161.224L149.033 162.478L147.371 163.733L145.639 165.039L143.767 166.444L141.693 168.007H140.925C139.807 168.014 138.691 167.943 137.583 167.797C136.73 167.686 135.892 167.485 135.083 167.197C134.49 167.002 133.94 166.695 133.463 166.294C133.289 166.152 133.146 165.977 133.04 165.78C132.935 165.582 132.87 165.365 132.85 165.142C132.868 164.651 133.078 164.187 133.435 163.85L134.689 162.506L135.949 161.163C136.228 160.874 136.543 160.62 136.885 160.409C137.312 160.14 137.76 159.903 138.224 159.702C138.734 159.473 139.305 159.258 139.933 159.047C140.56 158.836 141.248 158.644 141.983 158.462C142.718 158.279 143.495 158.111 144.324 157.956C145.152 157.802 146.004 157.666 146.894 157.544C147.783 157.422 148.696 157.319 149.633 157.235C150.569 157.151 151.505 157.085 152.441 157.039C153.378 156.992 154.375 156.95 155.32 156.95ZM155.686 157.085H155.143C154.23 157.085 153.307 157.109 152.39 157.151C151.472 157.193 150.555 157.259 149.656 157.338C148.757 157.418 147.868 157.521 147.011 157.638C146.154 157.755 145.326 157.891 144.53 158.04C143.734 158.19 142.985 158.354 142.273 158.509C141.562 158.663 140.902 158.874 140.293 159.075C139.729 159.257 139.174 159.468 138.631 159.707C138.181 159.903 137.746 160.131 137.33 160.39C136.997 160.596 136.69 160.841 136.417 161.121L135.144 162.464L133.87 163.85C133.691 164.014 133.547 164.212 133.445 164.432C133.343 164.652 133.285 164.89 133.276 165.133C133.291 165.348 133.351 165.558 133.451 165.749C133.552 165.94 133.692 166.108 133.861 166.242C134.321 166.633 134.852 166.931 135.424 167.122C136.213 167.396 137.027 167.589 137.854 167.698C138.929 167.843 140.013 167.912 141.098 167.904H141.501L143.509 166.378L145.316 165.002L146.988 163.728L148.593 162.506L150.199 161.285L151.875 160.011L153.682 158.635L155.686 157.085Z" fill="#0A3F9F" stroke="#0A3F9F" stroke-width="0.122072" stroke-miterlimit="10"/>
<path d="M100.564 160.26C101.572 160.256 102.579 160.315 103.579 160.437C104.391 160.533 105.193 160.698 105.976 160.929C106.517 161.079 107.027 161.327 107.479 161.659C107.624 161.755 107.739 161.89 107.812 162.048C107.885 162.206 107.912 162.381 107.891 162.553C107.766 162.934 107.499 163.253 107.147 163.443C106.637 163.762 106.086 164.008 105.508 164.173C104.767 164.397 104.009 164.561 103.242 164.665C101.459 164.908 99.6511 164.908 97.8679 164.665C97.1008 164.561 96.3432 164.397 95.6021 164.173C95.0262 164.007 94.4763 163.761 93.9683 163.443C93.6152 163.254 93.3498 162.935 93.2286 162.553C93.2075 162.381 93.2348 162.206 93.3076 162.048C93.3804 161.89 93.4957 161.755 93.6406 161.659C94.0965 161.327 94.6088 161.079 95.1527 160.929C95.936 160.697 96.738 160.532 97.5496 160.437C98.5498 160.315 99.5567 160.256 100.564 160.26ZM100.564 164.707C101.411 164.708 102.258 164.652 103.097 164.538C103.821 164.443 104.535 164.286 105.232 164.07C105.767 163.912 106.277 163.681 106.749 163.382C107.078 163.202 107.325 162.902 107.437 162.544C107.456 162.382 107.429 162.217 107.359 162.069C107.29 161.921 107.18 161.795 107.044 161.706C106.622 161.391 106.146 161.158 105.639 161.018C104.905 160.798 104.153 160.641 103.392 160.55C101.515 160.325 99.6183 160.325 97.7415 160.55C96.9805 160.641 96.2287 160.798 95.4944 161.018C94.9875 161.158 94.5111 161.391 94.09 161.706C93.9518 161.794 93.8413 161.92 93.7709 162.068C93.7006 162.216 93.6733 162.381 93.6921 162.544C93.745 162.722 93.8326 162.888 93.9499 163.031C94.0673 163.175 94.2119 163.294 94.3756 163.382C94.8532 163.68 95.37 163.91 95.9111 164.066C96.6082 164.281 97.3223 164.438 98.0458 164.534C98.8774 164.648 99.7157 164.705 100.555 164.707H100.564Z" fill="#0A3F9F" stroke="#0A3F9F" stroke-width="0.122072" stroke-miterlimit="10"/>
<path d="M62.9365 170.788H63.1097C63.6521 170.794 64.1915 170.868 64.7155 171.008C65.1492 171.109 65.5603 171.29 65.928 171.541L66.0169 171.611H64.032L62.9365 170.788ZM65.5019 171.476C64.8747 171.138 64.1776 170.95 63.4655 170.928L64.1818 171.476H65.5019Z" fill="#0A3F9F" stroke="#0A3F9F" stroke-width="0.122072" stroke-miterlimit="10"/>
<path d="M137.853 170.788H138.022L136.931 171.611H134.946L135.035 171.541C135.403 171.29 135.814 171.109 136.248 171.008C136.772 170.868 137.311 170.794 137.853 170.788ZM136.781 171.476L137.498 170.928C136.786 170.95 136.088 171.138 135.461 171.476H136.781Z" fill="#0A3F9F" stroke="#0A3F9F" stroke-width="0.122072" stroke-miterlimit="10"/>
<path d="M157.839 153.354H161.139L160.044 154.178H159.772C159.159 154.203 158.546 154.128 157.956 153.958C157.591 153.818 157.488 153.631 157.75 153.425L157.839 153.354ZM160.409 153.49H158.246C158.012 153.776 158.621 154.005 159.707 154.038L160.409 153.49Z" fill="#0A3F9F" stroke="#0A3F9F" stroke-width="0.122072" stroke-miterlimit="10"/>
<path d="M39.8057 153.354H43.0827L43.1716 153.425C43.4338 153.631 43.3308 153.818 42.9656 153.958C42.3758 154.128 41.7626 154.202 41.1492 154.178H40.8777L39.8057 153.354ZM42.7175 153.49H40.5547L41.2756 154.019C42.3617 154.019 42.9703 153.776 42.7362 153.49H42.7175Z" fill="#0A3F9F" stroke="#0A3F9F" stroke-width="0.122072" stroke-miterlimit="10"/>
<path d="M100.195 153.425H100.748C100.748 154.328 100.748 155.18 100.748 155.985C100.748 156.791 100.748 157.558 100.748 158.293V160.428V162.483V164.538C100.748 165.231 100.748 165.943 100.748 166.673V168.981C100.748 169.786 100.748 170.638 100.748 171.542H100.42C100.42 170.638 100.42 169.786 100.42 168.981V166.673C100.42 165.938 100.42 165.231 100.42 164.538V162.483V160.428V158.293C100.42 157.558 100.42 156.791 100.42 155.985C100.42 155.18 100.195 154.328 100.195 153.425Z" fill="#0A3F9F" stroke="#0A3F9F" stroke-width="0.122072" stroke-miterlimit="10"/>
<path d="M74.9399 162.483C75.0475 162.638 74.7386 162.759 74.2517 162.759C73.8704 162.792 73.4891 162.695 73.1703 162.483C73.0533 162.329 73.3622 162.207 73.8538 162.207C74.2368 162.172 74.6203 162.269 74.9399 162.483Z" fill="#0A3F9F" stroke="#0A3F9F" stroke-width="0.122072" stroke-miterlimit="10"/>
<path d="M127.817 162.483C127.498 162.695 127.116 162.792 126.735 162.759C126.267 162.759 125.939 162.638 126.047 162.483C126.367 162.269 126.75 162.172 127.133 162.207C127.601 162.207 127.91 162.329 127.817 162.483Z" fill="#0A3F9F" stroke="#0A3F9F" stroke-width="0.122072" stroke-miterlimit="10"/>
</g>
<defs>
<clipPath id="clip0_265_761">
<rect width="200" height="187.178" fill="white" transform="translate(0.482422)"/>
</clipPath>
</defs>
</svg>
